<svg width="326" height="185" viewBox="0 0 326 185" fill="none" xmlns="http://www.w3.org/2000/svg">
<path d="M1.69756 30.8679H0.924121V24.4226H5.31612V25.1316H1.69756V27.2217H5.0399V27.9307H1.69756V30.8679ZM7.80907 30.9416C6.70416 30.9416 5.99518 30.3707 5.99518 29.4776C5.99518 28.3543 7.08167 28.1425 8.05767 28.0412C8.80348 27.9675 9.44801 27.9767 9.45722 27.5808C9.44801 26.9639 8.94159 26.5312 8.20499 26.5312C7.49601 26.5312 6.94356 26.9271 6.86069 27.5072H6.10567C6.19774 26.5496 7.06325 25.8774 8.22341 25.8774C9.42959 25.8774 10.203 26.5956 10.203 27.6269V30.0024C10.203 30.1589 10.2859 30.2418 10.4516 30.2418H10.7279V30.8679H10.2951C9.77027 30.8679 9.49405 30.6285 9.49405 30.1774V30.03C9.20861 30.5917 8.65616 30.9416 7.80907 30.9416ZM7.91956 30.2878C8.8311 30.2878 9.45722 29.7078 9.45722 28.8975V28.2622C9.24544 28.5476 8.7022 28.6029 8.10371 28.6673C7.43156 28.741 6.7594 28.8331 6.7594 29.4592C6.7594 29.9656 7.21978 30.2878 7.91956 30.2878ZM13.4078 30.9692C12.2476 30.9692 11.3913 30.3615 11.3269 29.3303H12.0727C12.1279 29.9656 12.708 30.3155 13.4446 30.3155C14.1352 30.3155 14.4666 30.0484 14.4666 29.5604C14.4666 29.1001 14.1075 28.9988 13.6011 28.8238L12.8921 28.5844C12.1739 28.3451 11.4558 28.1241 11.4558 27.2401C11.4558 26.4115 12.1003 25.8774 13.1684 25.8774C14.2456 25.8774 14.9915 26.4575 15.1112 27.544H14.3653C14.2825 26.8626 13.8037 26.5312 13.1407 26.5312C12.5422 26.5312 12.1924 26.7982 12.1924 27.2217C12.1924 27.7281 12.7264 27.8294 13.1315 27.9675L13.7945 28.1885C14.6876 28.4832 15.2216 28.787 15.2216 29.5973C15.2216 30.4536 14.5955 30.9692 13.4078 30.9692ZM18.5769 30.8679H18.0336C17.0852 30.8679 16.5788 30.3799 16.5788 29.4776V26.6324H15.6765V25.9879H16.5788V24.3214H17.3431V25.9879H18.6597V26.6324H17.3431V29.4776C17.3431 29.9656 17.5824 30.2234 18.0336 30.2234H18.5769V30.8679ZM23.2029 30.9416C22.098 30.9416 21.389 30.3707 21.389 29.4776C21.389 28.3543 22.4755 28.1425 23.4515 28.0412C24.1974 27.9675 24.8419 27.9767 24.8511 27.5808C24.8419 26.9639 24.3355 26.5312 23.5989 26.5312C22.8899 26.5312 22.3374 26.9271 22.2546 27.5072H21.4995C21.5916 26.5496 22.4571 25.8774 23.6173 25.8774C24.8235 25.8774 25.5969 26.5956 25.5969 27.6269V30.0024C25.5969 30.1589 25.6798 30.2418 25.8455 30.2418H26.1217V30.8679H25.689C25.1641 30.8679 24.8879 30.6285 24.8879 30.1774V30.03C24.6025 30.5917 24.05 30.9416 23.2029 30.9416ZM23.3134 30.2878C24.225 30.2878 24.8511 29.7078 24.8511 28.8975V28.2622C24.6393 28.5476 24.0961 28.6029 23.4976 28.6673C22.8254 28.741 22.1533 28.8331 22.1533 29.4592C22.1533 29.9656 22.6137 30.2878 23.3134 30.2878ZM29.1607 30.9692C27.577 30.9692 26.7299 29.8091 26.7299 28.4003C26.7299 26.7614 27.8072 25.8774 29.1331 25.8774C30.3577 25.8774 31.2324 26.614 31.3705 27.8663H30.6247C30.4958 27.056 29.9342 26.5404 29.1147 26.5404C28.1479 26.5404 27.5034 27.2494 27.5034 28.4003C27.5034 29.6433 28.2584 30.3063 29.1699 30.3063C29.9526 30.3063 30.4866 29.8091 30.6247 28.962H31.3705C31.2324 30.2234 30.4222 30.9692 29.1607 30.9692ZM34.5558 30.9692C32.9721 30.9692 32.125 29.8091 32.125 28.4003C32.125 26.7614 33.2023 25.8774 34.5281 25.8774C35.7528 25.8774 36.6275 26.614 36.7656 27.8663H36.0198C35.8909 27.056 35.3292 26.5404 34.5097 26.5404C33.5429 26.5404 32.8984 27.2494 32.8984 28.4003C32.8984 29.6433 33.6534 30.3063 34.565 30.3063C35.3476 30.3063 35.8817 29.8091 36.0198 28.962H36.7656C36.6275 30.2234 35.8172 30.9692 34.5558 30.9692ZM39.9232 30.9692C38.4776 30.9692 37.52 29.9103 37.52 28.4463C37.52 26.7798 38.5973 25.8774 39.8311 25.8774C41.1754 25.8774 42.0409 26.7798 42.0686 28.3451V28.5568H38.2843C38.3303 29.5973 38.938 30.3063 39.9232 30.3063C40.6046 30.3063 41.1018 29.9656 41.3043 29.3303H42.0501C41.8292 30.3339 41.0373 30.9692 39.9232 30.9692ZM38.3303 27.9215H41.2675C41.1294 27.0652 40.6138 26.5404 39.8311 26.5404C39.0577 26.5404 38.4868 27.0468 38.3303 27.9215ZM44.8969 30.9692C43.7367 30.9692 42.8804 30.3615 42.8159 29.3303H43.5618C43.617 29.9656 44.1971 30.3155 44.9337 30.3155C45.6243 30.3155 45.9557 30.0484 45.9557 29.5604C45.9557 29.1001 45.5966 28.9988 45.0902 28.8238L44.3812 28.5844C43.663 28.3451 42.9449 28.1241 42.9449 27.2401C42.9449 26.4115 43.5894 25.8774 44.6575 25.8774C45.7347 25.8774 46.4806 26.4575 46.6003 27.544H45.8544C45.7716 26.8626 45.2928 26.5312 44.6298 26.5312C44.0313 26.5312 43.6815 26.7982 43.6815 27.2217C43.6815 27.7281 44.2155 27.8294 44.6206 27.9675L45.2836 28.1885C46.1767 28.4832 46.7107 28.787 46.7107 29.5973C46.7107 30.4536 46.0846 30.9692 44.8969 30.9692ZM49.4737 30.9692C48.3135 30.9692 47.4572 30.3615 47.3927 29.3303H48.1386C48.1938 29.9656 48.7739 30.3155 49.5105 30.3155C50.201 30.3155 50.5325 30.0484 50.5325 29.5604C50.5325 29.1001 50.1734 28.9988 49.667 28.8238L48.958 28.5844C48.2398 28.3451 47.5217 28.1241 47.5217 27.2401C47.5217 26.4115 48.1662 25.8774 49.2343 25.8774C50.3115 25.8774 51.0574 26.4575 51.177 27.544H50.4312C50.3484 26.8626 49.8696 26.5312 49.2066 26.5312C48.6081 26.5312 48.2583 26.7982 48.2583 27.2217C48.2583 27.7281 48.7923 27.8294 49.1974 27.9675L49.8604 28.1885C50.7535 28.4832 51.2875 28.787 51.2875 29.5973C51.2875 30.4536 50.6614 30.9692 49.4737 30.9692ZM56.8367 30.8679H56.2935C55.3451 30.8679 54.8387 30.3799 54.8387 29.4776V26.6324H53.9364V25.9879H54.8387V24.3214H55.6029V25.9879H56.9196V26.6324H55.6029V29.4776C55.6029 29.9656 55.8423 30.2234 56.2935 30.2234H56.8367V30.8679ZM59.8487 30.9692C58.2834 30.9692 57.4547 29.8551 57.4547 28.3819C57.4547 26.7521 58.5228 25.8774 59.8487 25.8774C61.4048 25.8774 62.2427 27.0007 62.2427 28.3819C62.2427 30.0669 61.2206 30.9692 59.8487 30.9692ZM59.8487 30.3063C60.8891 30.3063 61.46 29.4407 61.46 28.3819C61.46 27.2862 60.8247 26.5404 59.8487 26.5404C58.8727 26.5404 58.2374 27.2862 58.2374 28.3819C58.2374 29.6341 58.9648 30.3063 59.8487 30.3063ZM67.4925 30.9692C65.9088 30.9692 65.0617 29.8091 65.0617 28.4003C65.0617 26.7614 66.139 25.8774 67.4649 25.8774C68.6895 25.8774 69.5642 26.614 69.7023 27.8663H68.9565C68.8276 27.056 68.266 26.5404 67.4465 26.5404C66.4797 26.5404 65.8352 27.2494 65.8352 28.4003C65.8352 29.6433 66.5902 30.3063 67.5017 30.3063C68.2844 30.3063 68.8184 29.8091 68.9565 28.962H69.7023C69.5642 30.2234 68.754 30.9692 67.4925 30.9692ZM72.2799 30.9416C71.175 30.9416 70.466 30.3707 70.466 29.4776C70.466 28.3543 71.5525 28.1425 72.5285 28.0412C73.2743 27.9675 73.9188 27.9767 73.928 27.5808C73.9188 26.9639 73.4124 26.5312 72.6758 26.5312C71.9668 26.5312 71.4144 26.9271 71.3315 27.5072H70.5765C70.6686 26.5496 71.5341 25.8774 72.6942 25.8774C73.9004 25.8774 74.6739 26.5956 74.6739 27.6269V30.0024C74.6739 30.1589 74.7567 30.2418 74.9225 30.2418H75.1987V30.8679H74.7659C74.2411 30.8679 73.9649 30.6285 73.9649 30.1774V30.03C73.6794 30.5917 73.127 30.9416 72.2799 30.9416ZM72.3904 30.2878C73.3019 30.2878 73.928 29.7078 73.928 28.8975V28.2622C73.7163 28.5476 73.173 28.6029 72.5745 28.6673C71.9024 28.741 71.2302 28.8331 71.2302 29.4592C71.2302 29.9656 71.6906 30.2878 72.3904 30.2878ZM77.8786 30.9692C76.7184 30.9692 75.8621 30.3615 75.7977 29.3303H76.5435C76.5987 29.9656 77.1788 30.3155 77.9154 30.3155C78.606 30.3155 78.9375 30.0484 78.9375 29.5604C78.9375 29.1001 78.5784 28.9988 78.0719 28.8238L77.363 28.5844C76.6448 28.3451 75.9266 28.1241 75.9266 27.2401C75.9266 26.4115 76.5711 25.8774 77.6392 25.8774C78.7165 25.8774 79.4623 26.4575 79.582 27.544H78.8362C78.7533 26.8626 78.2745 26.5312 77.6116 26.5312C77.0131 26.5312 76.6632 26.7982 76.6632 27.2217C76.6632 27.7281 77.1972 27.8294 77.6024 27.9675L78.2653 28.1885C79.1584 28.4832 79.6925 28.787 79.6925 29.5973C79.6925 30.4536 79.0664 30.9692 77.8786 30.9692ZM81.4241 30.8679H80.6599V23.9623H81.4241V26.614C81.774 26.1721 82.3725 25.8774 83.0355 25.8774C84.0851 25.8774 84.7849 26.5588 84.7849 27.6361V30.8679H84.0207V27.6637C84.0207 26.9823 83.5787 26.5496 82.8881 26.5496C81.9674 26.5496 81.4333 27.1573 81.4241 27.9031V30.8679Z" fill="#0F3239"/>
<path d="M5.15039 63.283H0.924121V56.8377H1.69756V62.574H5.15039V63.283ZM8.29002 63.3843C6.72473 63.3843 5.89605 62.2702 5.89605 60.797C5.89605 59.1672 6.96413 58.2925 8.29002 58.2925C9.84609 58.2925 10.684 59.4158 10.684 60.797C10.684 62.482 9.66194 63.3843 8.29002 63.3843ZM8.29002 62.7214C9.33047 62.7214 9.90134 61.8559 9.90134 60.797C9.90134 59.7013 9.26602 58.9555 8.29002 58.9555C7.31402 58.9555 6.67869 59.7013 6.67869 60.797C6.67869 62.0492 7.40609 62.7214 8.29002 62.7214ZM13.4713 63.283H12.6243L11.1787 58.403H11.9613L13.0846 62.3346L14.1711 58.403H14.8341L15.9206 62.3162L17.0347 58.403H17.8173L16.3717 63.283H15.5338L14.5026 59.5632L13.4713 63.283ZM22.0008 63.283H21.2365V59.0475H20.3342V58.403H21.2365V57.7217C21.2365 56.8469 21.7245 56.3774 22.6269 56.3774H23.7134V57.0219H22.6269C22.2218 57.0219 22.0008 57.2705 22.0008 57.7217V58.403H23.5845V59.0475H22.0008V63.283ZM26.4176 63.3843C24.972 63.3843 24.0144 62.3254 24.0144 60.8614C24.0144 59.1949 25.0917 58.2925 26.3255 58.2925C27.6698 58.2925 28.5353 59.1949 28.563 60.7602V60.9719H24.7786C24.8247 62.0124 25.4324 62.7214 26.4176 62.7214C27.099 62.7214 27.5962 62.3807 27.7987 61.7454H28.5445C28.3236 62.749 27.5317 63.3843 26.4176 63.3843ZM24.8247 60.3366H27.7619C27.6238 59.4803 27.1082 58.9555 26.3255 58.9555C25.5521 58.9555 24.9812 59.4619 24.8247 60.3366ZM31.7227 63.3843C30.2771 63.3843 29.3196 62.3254 29.3196 60.8614C29.3196 59.1949 30.3968 58.2925 31.6306 58.2925C32.9749 58.2925 33.8405 59.1949 33.8681 60.7602V60.9719H30.0838C30.1298 62.0124 30.7375 62.7214 31.7227 62.7214C32.4041 62.7214 32.9013 62.3807 33.1039 61.7454H33.8497C33.6287 62.749 32.8368 63.3843 31.7227 63.3843ZM30.1298 60.3366H33.067C32.9289 59.4803 32.4133 58.9555 31.6306 58.9555C30.8572 58.9555 30.2863 59.4619 30.1298 60.3366Z" fill="#0F3239"/>
<path d="M1.69756 95.6981H0.924121V89.2528H5.31612V89.9618H1.69756V92.0519H5.0399V92.7609H1.69756V95.6981ZM7.11634 95.6981H6.35211V88.7924H7.11634V95.6981ZM10.5472 95.7993C9.10158 95.7993 8.14399 94.7405 8.14399 93.2765C8.14399 91.6099 9.22127 90.7076 10.4551 90.7076C11.7994 90.7076 12.6649 91.6099 12.6925 93.1752V93.387H8.90822C8.95425 94.4274 9.56195 95.1364 10.5472 95.1364C11.2285 95.1364 11.7257 94.7957 11.9283 94.1604H12.6741C12.4531 95.164 11.6613 95.7993 10.5472 95.7993ZM8.95425 92.7516H11.8915C11.7533 91.8953 11.2377 91.3705 10.4551 91.3705C9.68165 91.3705 9.11078 91.8769 8.95425 92.7516ZM13.9158 95.6981H13.0502L14.8181 93.2765L13.0687 90.8181H13.925L15.2509 92.7056L16.5675 90.8181H17.4238L15.6744 93.2673L17.4422 95.6981H16.5767L15.2509 93.8197L13.9158 95.6981ZM18.6972 89.9986C18.3749 89.9986 18.1263 89.75 18.1263 89.4277C18.1263 89.1055 18.3749 88.8661 18.6972 88.8661C19.0195 88.8661 19.2589 89.1055 19.2589 89.4277C19.2589 89.75 19.0195 89.9986 18.6972 89.9986ZM19.0747 95.6981H18.3105V90.8181H19.0747V95.6981ZM22.8291 95.7993C22.028 95.7993 21.3743 95.4034 21.0428 94.7681L20.96 95.6981H20.3523V88.7924H21.1165V91.5823C21.4756 91.0482 22.0925 90.7076 22.8291 90.7076C24.1182 90.7076 25.0205 91.7388 25.0205 93.2304C25.0205 94.7497 24.1182 95.7993 22.8291 95.7993ZM22.7094 95.1364C23.6117 95.1364 24.2286 94.3538 24.2286 93.2304C24.2286 92.1347 23.6117 91.3705 22.7002 91.3705C21.7794 91.3705 21.1165 92.1163 21.1165 93.1936C21.1165 94.3353 21.7794 95.1364 22.7094 95.1364ZM26.8173 95.6981H26.053V88.7924H26.8173V95.6981ZM30.2481 95.7993C28.8025 95.7993 27.8449 94.7405 27.8449 93.2765C27.8449 91.6099 28.9222 90.7076 30.156 90.7076C31.5003 90.7076 32.3658 91.6099 32.3934 93.1752V93.387H28.6091C28.6552 94.4274 29.2629 95.1364 30.2481 95.1364C30.9294 95.1364 31.4266 94.7957 31.6292 94.1604H32.375C32.154 95.164 31.3622 95.7993 30.2481 95.7993ZM28.6552 92.7516H31.5924C31.4543 91.8953 30.9386 91.3705 30.156 91.3705C29.3826 91.3705 28.8117 91.8769 28.6552 92.7516ZM36.231 95.6981H35.4667V90.8181H36.0744L36.1665 91.748C36.4796 91.1219 37.0504 90.7904 37.8607 90.7904H38.0264V91.5455H37.8607C36.8295 91.5455 36.231 92.1347 36.231 93.1384V95.6981ZM40.8314 95.7993C39.3858 95.7993 38.4282 94.7405 38.4282 93.2765C38.4282 91.6099 39.5055 90.7076 40.7393 90.7076C42.0836 90.7076 42.9491 91.6099 42.9767 93.1752V93.387H39.1924C39.2385 94.4274 39.8462 95.1364 40.8314 95.1364C41.5127 95.1364 42.0099 94.7957 42.2125 94.1604H42.9583C42.7373 95.164 41.9455 95.7993 40.8314 95.7993ZM39.2385 92.7516H42.1757C42.0376 91.8953 41.5219 91.3705 40.7393 91.3705C39.9659 91.3705 39.395 91.8769 39.2385 92.7516ZM44.7646 97.5396H44.0003V90.8181H44.608L44.6909 91.702C45.0408 91.0943 45.6853 90.7076 46.4772 90.7076C47.7662 90.7076 48.6686 91.7388 48.6686 93.2304C48.6686 94.7497 47.7662 95.7993 46.4772 95.7993C45.7314 95.7993 45.1145 95.4587 44.7646 94.8878V97.5396ZM46.3575 95.1364C47.2598 95.1364 47.8767 94.3538 47.8767 93.2304C47.8767 92.1347 47.2598 91.3705 46.3483 91.3705C45.4275 91.3705 44.7646 92.1163 44.7646 93.1936C44.7646 94.3353 45.4275 95.1364 46.3575 95.1364ZM51.2482 95.7717C50.1433 95.7717 49.4343 95.2009 49.4343 94.3077C49.4343 93.1844 50.5208 92.9726 51.4968 92.8713C52.2426 92.7977 52.8871 92.8069 52.8963 92.411C52.8871 91.7941 52.3807 91.3613 51.6441 91.3613C50.9351 91.3613 50.3827 91.7572 50.2998 92.3373H49.5448C49.6369 91.3797 50.5024 90.7076 51.6625 90.7076C52.8687 90.7076 53.6422 91.4258 53.6422 92.457V94.8325C53.6422 94.9891 53.725 95.0719 53.8908 95.0719H54.167V95.6981H53.7342C53.2094 95.6981 52.9332 95.4587 52.9332 95.0075V94.8602C52.6477 95.4218 52.0953 95.7717 51.2482 95.7717ZM51.3587 95.118C52.2702 95.118 52.8963 94.5379 52.8963 93.7276V93.0923C52.6846 93.3778 52.1413 93.433 51.5428 93.4975C50.8707 93.5711 50.1985 93.6632 50.1985 94.2893C50.1985 94.7957 50.6589 95.118 51.3587 95.118ZM55.3793 97.5396H54.5966V96.895H55.3793C55.8765 96.895 56.0883 96.7201 56.1988 96.4255L56.4658 95.6981H56.2816L54.348 90.8181H55.1675L56.7512 94.9338L58.2797 90.8181H59.0623L56.8709 96.7201C56.6683 97.2541 56.2172 97.5396 55.3793 97.5396ZM60.6346 95.6981H59.8703V90.8181H60.478L60.5517 91.5731C60.8832 91.0482 61.5185 90.7076 62.2183 90.7076C62.9549 90.7076 63.5073 91.0851 63.7559 91.6744C64.069 91.1035 64.7411 90.7076 65.4869 90.7076C66.5182 90.7076 67.1811 91.435 67.1811 92.4294V95.6981H66.4169V92.457C66.4169 91.8033 66.0118 91.3797 65.358 91.3797C64.4465 91.3797 63.9125 91.9874 63.9032 92.7332V95.6981H63.1482V92.457C63.1482 91.8033 62.7431 91.3797 62.0894 91.3797C61.1778 91.3797 60.6438 91.9874 60.6346 92.7332V95.6981ZM70.5311 95.7993C69.0855 95.7993 68.1279 94.7405 68.1279 93.2765C68.1279 91.6099 69.2052 90.7076 70.439 90.7076C71.7833 90.7076 72.6488 91.6099 72.6765 93.1752V93.387H68.8922C68.9382 94.4274 69.5459 95.1364 70.5311 95.1364C71.2125 95.1364 71.7097 94.7957 71.9122 94.1604H72.658C72.4371 95.164 71.6452 95.7993 70.5311 95.7993ZM68.9382 92.7516H71.8754C71.7373 91.8953 71.2217 91.3705 70.439 91.3705C69.6656 91.3705 69.0947 91.8769 68.9382 92.7516ZM74.4459 95.6981H73.6817V90.8181H74.2894L74.363 91.5639C74.6945 91.0482 75.3298 90.7076 76.0572 90.7076C77.1069 90.7076 77.8066 91.3889 77.8066 92.4662V95.6981H77.0424V92.4938C77.0424 91.8125 76.6005 91.3797 75.8639 91.3797C74.9891 91.3797 74.4551 91.9874 74.4459 92.7332V95.6981ZM81.4561 95.6981H80.9129C79.9645 95.6981 79.4581 95.2101 79.4581 94.3077V91.4626H78.5558V90.8181H79.4581V89.1515H80.2223V90.8181H81.539V91.4626H80.2223V94.3077C80.2223 94.7957 80.4617 95.0535 80.9129 95.0535H81.4561V95.6981ZM87.049 95.6981H86.5058C85.5574 95.6981 85.051 95.2101 85.051 94.3077V91.4626H84.1486V90.8181H85.051V89.1515H85.8152V90.8181H87.1319V91.4626H85.8152V94.3077C85.8152 94.7957 86.0546 95.0535 86.5058 95.0535H87.049V95.6981ZM90.061 95.7993C88.4957 95.7993 87.667 94.6852 87.667 93.212C87.667 91.5823 88.7351 90.7076 90.061 90.7076C91.617 90.7076 92.4549 91.8309 92.4549 93.212C92.4549 94.897 91.4329 95.7993 90.061 95.7993ZM90.061 95.1364C91.1014 95.1364 91.6723 94.2709 91.6723 93.212C91.6723 92.1163 91.037 91.3705 90.061 91.3705C89.085 91.3705 88.4496 92.1163 88.4496 93.212C88.4496 94.4642 89.177 95.1364 90.061 95.1364ZM1.55023 111.54H0.786008V104.818H1.39371L1.47657 105.702C1.82646 105.094 2.47099 104.708 3.26284 104.708C4.5519 104.708 5.45423 105.739 5.45423 107.23C5.45423 108.75 4.5519 109.799 3.26284 109.799C2.51703 109.799 1.90012 109.459 1.55023 108.888V111.54ZM3.14314 109.136C4.04548 109.136 4.66239 108.354 4.66239 107.23C4.66239 106.135 4.04548 105.371 3.13393 105.371C2.21318 105.371 1.55023 106.116 1.55023 107.194C1.55023 108.335 2.21318 109.136 3.14314 109.136ZM7.22359 109.698H6.45937V104.818H7.06707L7.15914 105.748C7.4722 105.122 8.04307 104.79 8.85333 104.79H9.01907V105.545H8.85333C7.82209 105.545 7.22359 106.135 7.22359 107.138V109.698ZM11.8148 109.799C10.2495 109.799 9.42082 108.685 9.42082 107.212C9.42082 105.582 10.4889 104.708 11.8148 104.708C13.3709 104.708 14.2087 105.831 14.2087 107.212C14.2087 108.897 13.1867 109.799 11.8148 109.799ZM11.8148 109.136C12.8552 109.136 13.4261 108.271 13.4261 107.212C13.4261 106.116 12.7908 105.371 11.8148 105.371C10.8388 105.371 10.2035 106.116 10.2035 107.212C10.2035 108.464 10.9309 109.136 11.8148 109.136ZM17.6237 109.698H17.0805C16.1321 109.698 15.6257 109.21 15.6257 108.308V105.463H14.7234V104.818H15.6257V103.151H16.3899V104.818H17.7066V105.463H16.3899V108.308C16.3899 108.796 16.6293 109.054 17.0805 109.054H17.6237V109.698ZM20.6449 109.799C19.1993 109.799 18.2417 108.74 18.2417 107.276C18.2417 105.61 19.319 104.708 20.5528 104.708C21.8971 104.708 22.7626 105.61 22.7903 107.175V107.387H19.0059C19.052 108.427 19.6597 109.136 20.6449 109.136C21.3263 109.136 21.8235 108.796 22.026 108.16H22.7718C22.5509 109.164 21.759 109.799 20.6449 109.799ZM19.052 106.752H21.9892C21.8511 105.895 21.3355 105.371 20.5528 105.371C19.7794 105.371 19.2085 105.877 19.052 106.752ZM25.9776 109.799C24.3939 109.799 23.5469 108.639 23.5469 107.23C23.5469 105.591 24.6241 104.708 25.95 104.708C27.1746 104.708 28.0493 105.444 28.1875 106.696H27.4416C27.3127 105.886 26.7511 105.371 25.9316 105.371C24.9648 105.371 24.3203 106.079 24.3203 107.23C24.3203 108.473 25.0753 109.136 25.9869 109.136C26.7695 109.136 27.3035 108.639 27.4416 107.792H28.1875C28.0493 109.054 27.2391 109.799 25.9776 109.799ZM31.6059 109.698H31.0627C30.1143 109.698 29.6079 109.21 29.6079 108.308V105.463H28.7055V104.818H29.6079V103.151H30.3721V104.818H31.6888V105.463H30.3721V108.308C30.3721 108.796 30.6115 109.054 31.0627 109.054H31.6059V109.698ZM35.2468 111.54H34.4641V110.895H35.2468C35.744 110.895 35.9557 110.72 36.0662 110.425L36.3333 109.698H36.1491L34.2155 104.818H35.035L36.6187 108.934L38.1471 104.818H38.9298L36.7384 110.72C36.5358 111.254 36.0847 111.54 35.2468 111.54ZM41.7033 109.799C40.1381 109.799 39.3094 108.685 39.3094 107.212C39.3094 105.582 40.3775 104.708 41.7033 104.708C43.2594 104.708 44.0973 105.831 44.0973 107.212C44.0973 108.897 43.0753 109.799 41.7033 109.799ZM41.7033 109.136C42.7438 109.136 43.3147 108.271 43.3147 107.212C43.3147 106.116 42.6793 105.371 41.7033 105.371C40.7273 105.371 40.092 106.116 40.092 107.212C40.092 108.464 40.8194 109.136 41.7033 109.136ZM46.874 109.799C45.6862 109.799 45.0048 109.072 45.0048 108.078V104.818H45.7691V108.05C45.7691 108.75 46.2571 109.127 46.9476 109.127C47.8592 109.127 48.3564 108.519 48.3656 107.783V104.818H49.1298V109.698H48.5221L48.4577 108.961C48.1354 109.514 47.5461 109.799 46.874 109.799ZM51.1483 109.698H50.384V104.818H50.9917L51.0838 105.748C51.3969 105.122 51.9677 104.79 52.778 104.79H52.9437V105.545H52.778C51.7468 105.545 51.1483 106.135 51.1483 107.138V109.698ZM56.6512 109.698H55.887V104.818H56.4947L56.5684 105.573C56.8998 105.048 57.5351 104.708 58.2349 104.708C58.9715 104.708 59.524 105.085 59.7726 105.674C60.0856 105.103 60.7578 104.708 61.5036 104.708C62.5348 104.708 63.1978 105.435 63.1978 106.429V109.698H62.4336V106.457C62.4336 105.803 62.0284 105.38 61.3747 105.38C60.4631 105.38 59.9291 105.987 59.9199 106.733V109.698H59.1649V106.457C59.1649 105.803 58.7598 105.38 58.106 105.38C57.1945 105.38 56.6604 105.987 56.6512 106.733V109.698ZM65.9677 109.772C64.8628 109.772 64.1538 109.201 64.1538 108.308C64.1538 107.184 65.2403 106.973 66.2163 106.871C66.9621 106.798 67.6066 106.807 67.6158 106.411C67.6066 105.794 67.1002 105.361 66.3636 105.361C65.6546 105.361 65.1022 105.757 65.0193 106.337H64.2643C64.3564 105.38 65.2219 104.708 66.382 104.708C67.5882 104.708 68.3616 105.426 68.3616 106.457V108.833C68.3616 108.989 68.4445 109.072 68.6102 109.072H68.8865V109.698H68.4537C67.9289 109.698 67.6527 109.459 67.6527 109.007V108.86C67.3672 109.422 66.8148 109.772 65.9677 109.772ZM66.0782 109.118C66.9897 109.118 67.6158 108.538 67.6158 107.728V107.092C67.4041 107.378 66.8608 107.433 66.2623 107.497C65.5902 107.571 64.918 107.663 64.918 108.289C64.918 108.796 65.3784 109.118 66.0782 109.118ZM70.5075 109.698H69.7433V104.818H70.351L70.4431 105.748C70.7561 105.122 71.327 104.79 72.1372 104.79H72.303V105.545H72.1372C71.106 105.545 70.5075 106.135 70.5075 107.138V109.698ZM75.0803 111.65C73.7636 111.65 72.8705 111.015 72.8705 109.983H73.6347C73.6347 110.564 74.224 111.006 75.0803 111.006C76.0839 111.006 76.6087 110.407 76.6087 109.569V108.777C76.268 109.284 75.6788 109.615 74.933 109.615C73.6347 109.615 72.7047 108.621 72.7047 107.184C72.7047 105.72 73.6439 104.708 74.933 104.708C75.7156 104.708 76.3509 105.076 76.6824 105.665L76.7653 104.818H77.3637V109.569C77.3637 110.803 76.5351 111.65 75.0803 111.65ZM75.0434 108.952C75.9642 108.952 76.6087 108.216 76.6087 107.157C76.6087 106.107 75.9642 105.371 75.0434 105.371C74.1319 105.371 73.4966 106.107 73.4966 107.175C73.4966 108.225 74.1319 108.952 75.0434 108.952ZM79.0049 103.999C78.6826 103.999 78.434 103.75 78.434 103.428C78.434 103.105 78.6826 102.866 79.0049 102.866C79.3271 102.866 79.5665 103.105 79.5665 103.428C79.5665 103.75 79.3271 103.999 79.0049 103.999ZM79.3824 109.698H78.6181V104.818H79.3824V109.698ZM81.3965 109.698H80.6323V104.818H81.24L81.3136 105.564C81.6451 105.048 82.2804 104.708 83.0078 104.708C84.0575 104.708 84.7573 105.389 84.7573 106.466V109.698H83.993V106.494C83.993 105.812 83.5511 105.38 82.8145 105.38C81.9398 105.38 81.4057 105.987 81.3965 106.733V109.698ZM87.7785 109.799C86.6183 109.799 85.762 109.192 85.6976 108.16H86.4434C86.4986 108.796 87.0787 109.146 87.8153 109.146C88.5059 109.146 88.8374 108.879 88.8374 108.391C88.8374 107.93 88.4783 107.829 87.9719 107.654L87.2629 107.415C86.5447 107.175 85.8265 106.954 85.8265 106.07C85.8265 105.242 86.471 104.708 87.5391 104.708C88.6164 104.708 89.3622 105.288 89.4819 106.374H88.7361C88.6532 105.693 88.1744 105.361 87.5115 105.361C86.913 105.361 86.5631 105.628 86.5631 106.052C86.5631 106.558 87.0971 106.66 87.5023 106.798L88.1652 107.019C89.0583 107.313 89.5924 107.617 89.5924 108.427C89.5924 109.284 88.9663 109.799 87.7785 109.799Z" fill="#0F3239"/>
<path d="M3.41937 142.214C1.79884 142.214 0.684725 141.377 0.601857 140.161H1.41212C1.5042 140.99 2.28684 141.515 3.41937 141.515C4.40457 141.515 4.9202 141.11 4.9202 140.437C4.9202 139.784 4.34933 139.535 3.73242 139.342L2.61831 138.992C2.10269 138.826 0.804423 138.55 0.804423 137.288C0.804423 136.248 1.66072 135.567 2.99582 135.567C4.46903 135.567 5.38057 136.312 5.48186 137.684H4.6808C4.61635 136.773 3.98103 136.266 2.95899 136.266C2.14873 136.266 1.57786 136.635 1.57786 137.252C1.57786 137.961 2.31446 138.108 2.86691 138.283L3.90737 138.605C4.72684 138.863 5.71205 139.185 5.71205 140.401C5.71205 141.533 4.84654 142.214 3.41937 142.214ZM8.50618 142.214C7.3184 142.214 6.63705 141.487 6.63705 140.493V137.233H7.40127V140.465C7.40127 141.165 7.88927 141.542 8.57984 141.542C9.49139 141.542 9.98859 140.935 9.9978 140.198V137.233H10.762V142.113H10.1543L10.0899 141.377C9.76761 141.929 9.17833 142.214 8.50618 142.214ZM14.1985 142.214C12.6148 142.214 11.7677 141.054 11.7677 139.646C11.7677 138.007 12.8449 137.123 14.1708 137.123C15.3954 137.123 16.2702 137.859 16.4083 139.111H15.6625C15.5336 138.301 14.9719 137.786 14.1524 137.786C13.1856 137.786 12.5411 138.495 12.5411 139.646C12.5411 140.889 13.2961 141.551 14.2077 141.551C14.9903 141.551 15.5243 141.054 15.6625 140.207H16.4083C16.2702 141.469 15.4599 142.214 14.1985 142.214ZM19.5935 142.214C18.0098 142.214 17.1627 141.054 17.1627 139.646C17.1627 138.007 18.24 137.123 19.5659 137.123C20.7905 137.123 21.6652 137.859 21.8033 139.111H21.0575C20.9286 138.301 20.3669 137.786 19.5475 137.786C18.5807 137.786 17.9361 138.495 17.9361 139.646C17.9361 140.889 18.6912 141.551 19.6027 141.551C20.3854 141.551 20.9194 141.054 21.0575 140.207H21.8033C21.6652 141.469 20.8549 142.214 19.5935 142.214ZM24.9609 142.214C23.5153 142.214 22.5578 141.156 22.5578 139.692C22.5578 138.025 23.635 137.123 24.8689 137.123C26.2132 137.123 27.0787 138.025 27.1063 139.59V139.802H23.322C23.368 140.843 23.9757 141.551 24.9609 141.551C25.6423 141.551 26.1395 141.211 26.3421 140.575H27.0879C26.8669 141.579 26.075 142.214 24.9609 142.214ZM23.368 139.167H26.3052C26.1671 138.31 25.6515 137.786 24.8689 137.786C24.0954 137.786 23.5246 138.292 23.368 139.167ZM29.9346 142.214C28.7744 142.214 27.9181 141.607 27.8537 140.575H28.5995C28.6547 141.211 29.2348 141.561 29.9714 141.561C30.662 141.561 30.9935 141.294 30.9935 140.806C30.9935 140.345 30.6344 140.244 30.1279 140.069L29.419 139.83C28.7008 139.59 27.9826 139.369 27.9826 138.485C27.9826 137.657 28.6271 137.123 29.6952 137.123C30.7725 137.123 31.5183 137.703 31.638 138.789H30.8922C30.8093 138.108 30.3305 137.776 29.6676 137.776C29.0691 137.776 28.7192 138.043 28.7192 138.467C28.7192 138.973 29.2532 139.075 29.6584 139.213L30.3213 139.434C31.2144 139.728 31.7485 140.032 31.7485 140.843C31.7485 141.699 31.1224 142.214 29.9346 142.214ZM34.5114 142.214C33.3512 142.214 32.4949 141.607 32.4305 140.575H33.1763C33.2315 141.211 33.8116 141.561 34.5482 141.561C35.2388 141.561 35.5703 141.294 35.5703 140.806C35.5703 140.345 35.2112 140.244 34.7047 140.069L33.9958 139.83C33.2776 139.59 32.5594 139.369 32.5594 138.485C32.5594 137.657 33.2039 137.123 34.272 137.123C35.3493 137.123 36.0951 137.703 36.2148 138.789H35.469C35.3861 138.108 34.9073 137.776 34.2444 137.776C33.6459 137.776 33.296 138.043 33.296 138.467C33.296 138.973 33.83 139.075 34.2352 139.213L34.8981 139.434C35.7912 139.728 36.3253 140.032 36.3253 140.843C36.3253 141.699 35.6992 142.214 34.5114 142.214ZM40.9077 142.187C39.8028 142.187 39.0938 141.616 39.0938 140.723C39.0938 139.599 40.1803 139.388 41.1563 139.286C41.9021 139.213 42.5466 139.222 42.5558 138.826C42.5466 138.209 42.0402 137.776 41.3036 137.776C40.5946 137.776 40.0422 138.172 39.9593 138.752H39.2043C39.2964 137.795 40.1619 137.123 41.322 137.123C42.5282 137.123 43.3016 137.841 43.3016 138.872V141.248C43.3016 141.404 43.3845 141.487 43.5503 141.487H43.8265V142.113H43.3937C42.8689 142.113 42.5927 141.874 42.5927 141.423V141.275C42.3072 141.837 41.7548 142.187 40.9077 142.187ZM41.0182 141.533C41.9297 141.533 42.5558 140.953 42.5558 140.143V139.507C42.3441 139.793 41.8008 139.848 41.2023 139.913C40.5302 139.986 39.858 140.078 39.858 140.704C39.858 141.211 40.3184 141.533 41.0182 141.533ZM45.4751 142.113H44.7109V135.207H45.4751V142.113ZM47.1381 136.414C46.8158 136.414 46.5672 136.165 46.5672 135.843C46.5672 135.521 46.8158 135.281 47.1381 135.281C47.4604 135.281 47.6998 135.521 47.6998 135.843C47.6998 136.165 47.4604 136.414 47.1381 136.414ZM47.5156 142.113H46.7514V137.233H47.5156V142.113ZM50.8925 144.065C49.5758 144.065 48.6827 143.43 48.6827 142.399H49.4469C49.4469 142.979 50.0362 143.421 50.8925 143.421C51.8961 143.421 52.4209 142.822 52.4209 141.984V141.192C52.0803 141.699 51.491 142.03 50.7452 142.03C49.4469 142.03 48.5169 141.036 48.5169 139.599C48.5169 138.135 49.4561 137.123 50.7452 137.123C51.5278 137.123 52.1631 137.491 52.4946 138.08L52.5775 137.233H53.1759V141.984C53.1759 143.218 52.3473 144.065 50.8925 144.065ZM50.8556 141.367C51.7764 141.367 52.4209 140.631 52.4209 139.572C52.4209 138.522 51.7764 137.786 50.8556 137.786C49.9441 137.786 49.3088 138.522 49.3088 139.59C49.3088 140.64 49.9441 141.367 50.8556 141.367ZM55.1946 142.113H54.4303V137.233H55.038L55.1117 137.979C55.4432 137.463 56.0785 137.123 56.8059 137.123C57.8555 137.123 58.5553 137.804 58.5553 138.881V142.113H57.7911V138.909C57.7911 138.228 57.3491 137.795 56.6125 137.795C55.7378 137.795 55.2038 138.403 55.1946 139.148V142.113ZM61.908 142.214C60.4624 142.214 59.5048 141.156 59.5048 139.692C59.5048 138.025 60.5821 137.123 61.8159 137.123C63.1602 137.123 64.0258 138.025 64.0534 139.59V139.802H60.2691C60.3151 140.843 60.9228 141.551 61.908 141.551C62.5894 141.551 63.0866 141.211 63.2891 140.575H64.035C63.814 141.579 63.0221 142.214 61.908 142.214ZM60.3151 139.167H63.2523C63.1142 138.31 62.5986 137.786 61.8159 137.786C61.0425 137.786 60.4716 138.292 60.3151 139.167ZM67.029 142.214C65.7215 142.214 64.81 141.165 64.81 139.646C64.81 138.154 65.7123 137.123 67.0198 137.123C67.7564 137.123 68.3733 137.445 68.7232 137.961V135.207H69.4874V142.113H68.8797L68.7968 141.174C68.4746 141.809 67.8301 142.214 67.029 142.214ZM67.1487 141.551C68.0787 141.551 68.7232 140.76 68.7232 139.627C68.7232 138.531 68.0971 137.776 67.1947 137.776C66.2556 137.776 65.6018 138.541 65.6018 139.646C65.6018 140.769 66.2371 141.551 67.1487 141.551ZM74.6872 142.113H73.8401L72.3945 137.233H73.1771L74.3004 141.165L75.3869 137.233H76.0499L77.1364 141.146L78.2505 137.233H79.0331L77.5875 142.113H76.7496L75.7184 138.393L74.6872 142.113ZM80.2277 136.414C79.9055 136.414 79.6569 136.165 79.6569 135.843C79.6569 135.521 79.9055 135.281 80.2277 135.281C80.55 135.281 80.7894 135.521 80.7894 135.843C80.7894 136.165 80.55 136.414 80.2277 136.414ZM80.6052 142.113H79.841V137.233H80.6052V142.113ZM84.3964 142.113H83.8532C82.9048 142.113 82.3984 141.625 82.3984 140.723V137.878H81.4961V137.233H82.3984V135.567H83.1626V137.233H84.4793V137.878H83.1626V140.723C83.1626 141.211 83.402 141.469 83.8532 141.469H84.3964V142.113ZM86.1718 142.113H85.4076V135.207H86.1718V137.859C86.5217 137.417 87.1202 137.123 87.7831 137.123C88.8328 137.123 89.5325 137.804 89.5325 138.881V142.113H88.7683V138.909C88.7683 138.228 88.3263 137.795 87.6358 137.795C86.715 137.795 86.181 138.403 86.1718 139.148V142.113ZM1.35688 157.955H0.574234V157.31H1.35688C1.85408 157.31 2.06586 157.135 2.17635 156.841L2.44337 156.113H2.25922L0.32563 151.233H1.1451L2.7288 155.349L4.25725 151.233H5.0399L2.8485 157.135C2.64593 157.669 2.19476 157.955 1.35688 157.955ZM7.81345 156.214C6.24817 156.214 5.41949 155.1 5.41949 153.627C5.41949 151.997 6.48757 151.123 7.81345 151.123C9.36953 151.123 10.2074 152.246 10.2074 153.627C10.2074 155.312 9.18538 156.214 7.81345 156.214ZM7.81345 155.551C8.85391 155.551 9.42477 154.686 9.42477 153.627C9.42477 152.531 8.78945 151.786 7.81345 151.786C6.83745 151.786 6.20213 152.531 6.20213 153.627C6.20213 154.879 6.92953 155.551 7.81345 155.551ZM12.9841 156.214C11.7963 156.214 11.1149 155.487 11.1149 154.493V151.233H11.8792V154.465C11.8792 155.165 12.3672 155.542 13.0577 155.542C13.9693 155.542 14.4665 154.935 14.4757 154.198V151.233H15.2399V156.113H14.6322L14.5678 155.377C14.2455 155.929 13.6562 156.214 12.9841 156.214ZM17.2584 156.113H16.4942V151.233H17.1019L17.1939 152.163C17.507 151.537 18.0779 151.206 18.8881 151.206H19.0539V151.961H18.8881C17.8569 151.961 17.2584 152.55 17.2584 153.553V156.113ZM24.5016 156.214C23.7005 156.214 23.0468 155.819 22.7153 155.183L22.6324 156.113H22.0247V149.207H22.789V151.997C23.148 151.463 23.765 151.123 24.5016 151.123C25.7906 151.123 26.693 152.154 26.693 153.646C26.693 155.165 25.7906 156.214 24.5016 156.214ZM24.3819 155.551C25.2842 155.551 25.9011 154.769 25.9011 153.646C25.9011 152.55 25.2842 151.786 24.3727 151.786C23.4519 151.786 22.789 152.531 22.789 153.609C22.789 154.75 23.4519 155.551 24.3819 155.551ZM29.4749 156.214C28.2872 156.214 27.6058 155.487 27.6058 154.493V151.233H28.37V154.465C28.37 155.165 28.858 155.542 29.5486 155.542C30.4601 155.542 30.9573 154.935 30.9666 154.198V151.233H31.7308V156.113H31.1231L31.0586 155.377C30.7364 155.929 30.1471 156.214 29.4749 156.214ZM34.8081 156.214C33.648 156.214 32.7917 155.607 32.7272 154.575H33.473C33.5283 155.211 34.1083 155.561 34.8449 155.561C35.5355 155.561 35.867 155.294 35.867 154.806C35.867 154.345 35.5079 154.244 35.0015 154.069L34.2925 153.83C33.5743 153.59 32.8561 153.369 32.8561 152.485C32.8561 151.657 33.5006 151.123 34.5687 151.123C35.646 151.123 36.3918 151.703 36.5115 152.789H35.7657C35.6828 152.108 35.204 151.776 34.5411 151.776C33.9426 151.776 33.5927 152.043 33.5927 152.467C33.5927 152.973 34.1268 153.075 34.5319 153.213L35.1948 153.434C36.088 153.728 36.622 154.032 36.622 154.843C36.622 155.699 35.9959 156.214 34.8081 156.214ZM37.9485 150.414C37.6263 150.414 37.3777 150.165 37.3777 149.843C37.3777 149.521 37.6263 149.281 37.9485 149.281C38.2708 149.281 38.5102 149.521 38.5102 149.843C38.5102 150.165 38.2708 150.414 37.9485 150.414ZM38.326 156.113H37.5618V151.233H38.326V156.113ZM40.3402 156.113H39.576V151.233H40.1837L40.2573 151.979C40.5888 151.463 41.2241 151.123 41.9515 151.123C43.0012 151.123 43.701 151.804 43.701 152.881V156.113H42.9367V152.909C42.9367 152.228 42.4948 151.795 41.7582 151.795C40.8834 151.795 40.3494 152.403 40.3402 153.148V156.113ZM47.0536 156.214C45.6081 156.214 44.6505 155.156 44.6505 153.692C44.6505 152.025 45.7278 151.123 46.9616 151.123C48.3059 151.123 49.1714 152.025 49.199 153.59V153.802H45.4147C45.4607 154.843 46.0684 155.551 47.0536 155.551C47.735 155.551 48.2322 155.211 48.4348 154.575H49.1806C48.9596 155.579 48.1678 156.214 47.0536 156.214ZM45.4607 153.167H48.3979C48.2598 152.31 47.7442 151.786 46.9616 151.786C46.1881 151.786 45.6173 152.292 45.4607 153.167ZM52.0273 156.214C50.8672 156.214 50.0109 155.607 49.9464 154.575H50.6922C50.7475 155.211 51.3275 155.561 52.0641 155.561C52.7547 155.561 53.0862 155.294 53.0862 154.806C53.0862 154.345 52.7271 154.244 52.2207 154.069L51.5117 153.83C50.7935 153.59 50.0753 153.369 50.0753 152.485C50.0753 151.657 50.7198 151.123 51.7879 151.123C52.8652 151.123 53.611 151.703 53.7307 152.789H52.9849C52.902 152.108 52.4232 151.776 51.7603 151.776C51.1618 151.776 50.8119 152.043 50.8119 152.467C50.8119 152.973 51.346 153.075 51.7511 153.213L52.414 153.434C53.3072 153.728 53.8412 154.032 53.8412 154.843C53.8412 155.699 53.2151 156.214 52.0273 156.214ZM56.6041 156.214C55.444 156.214 54.5877 155.607 54.5232 154.575H55.269C55.3243 155.211 55.9043 155.561 56.6409 155.561C57.3315 155.561 57.663 155.294 57.663 154.806C57.663 154.345 57.3039 154.244 56.7975 154.069L56.0885 153.83C55.3703 153.59 54.6521 153.369 54.6521 152.485C54.6521 151.657 55.2966 151.123 56.3647 151.123C57.442 151.123 58.1878 151.703 58.3075 152.789H57.5617C57.4788 152.108 57 151.776 56.3371 151.776C55.7386 151.776 55.3887 152.043 55.3887 152.467C55.3887 152.973 55.9227 153.075 56.3279 153.213L56.9908 153.434C57.884 153.728 58.418 154.032 58.418 154.843C58.418 155.699 57.7919 156.214 56.6041 156.214ZM1.55023 171.955H0.786008V165.233H1.39371L1.47657 166.117C1.82646 165.509 2.47099 165.123 3.26284 165.123C4.5519 165.123 5.45423 166.154 5.45423 167.646C5.45423 169.165 4.5519 170.214 3.26284 170.214C2.51703 170.214 1.90012 169.874 1.55023 169.303V171.955ZM3.14314 169.551C4.04548 169.551 4.66239 168.769 4.66239 167.646C4.66239 166.55 4.04548 165.786 3.13393 165.786C2.21318 165.786 1.55023 166.531 1.55023 167.609C1.55023 168.75 2.21318 169.551 3.14314 169.551ZM8.61393 170.214C7.16835 170.214 6.21076 169.156 6.21076 167.692C6.21076 166.025 7.28805 165.123 8.52186 165.123C9.86616 165.123 10.7317 166.025 10.7593 167.59V167.802H6.97499C7.02103 168.843 7.62873 169.551 8.61393 169.551C9.29529 169.551 9.7925 169.211 9.99507 168.575H10.7409C10.5199 169.579 9.72805 170.214 8.61393 170.214ZM7.02103 167.167H9.95824C9.82012 166.31 9.3045 165.786 8.52186 165.786C7.74842 165.786 7.17756 166.292 7.02103 167.167ZM12.5287 170.113H11.7645V165.233H12.3722L12.4643 166.163C12.7773 165.537 13.3482 165.206 14.1585 165.206H14.3242V165.961H14.1585C13.1272 165.961 12.5287 166.55 12.5287 167.553V170.113ZM16.5068 170.113H15.7426V165.878H14.8403V165.233H15.7426V164.552C15.7426 163.677 16.2306 163.207 17.1329 163.207H18.2194V163.852H17.1329C16.7278 163.852 16.5068 164.101 16.5068 164.552V165.233H18.0905V165.878H16.5068V170.113ZM20.9144 170.214C19.3491 170.214 18.5205 169.1 18.5205 167.627C18.5205 165.997 19.5885 165.123 20.9144 165.123C22.4705 165.123 23.3084 166.246 23.3084 167.627C23.3084 169.312 22.2864 170.214 20.9144 170.214ZM20.9144 169.551C21.9549 169.551 22.5257 168.686 22.5257 167.627C22.5257 166.531 21.8904 165.786 20.9144 165.786C19.9384 165.786 19.3031 166.531 19.3031 167.627C19.3031 168.879 20.0305 169.551 20.9144 169.551ZM25.0722 170.113H24.308V165.233H24.9157L25.0078 166.163C25.3208 165.537 25.8917 165.206 26.7019 165.206H26.8677V165.961H26.7019C25.6707 165.961 25.0722 166.55 25.0722 167.553V170.113ZM28.5071 170.113H27.7428V165.233H28.3505L28.4242 165.988C28.7557 165.463 29.391 165.123 30.0908 165.123C30.8274 165.123 31.3798 165.5 31.6284 166.089C31.9415 165.519 32.6136 165.123 33.3594 165.123C34.3907 165.123 35.0536 165.85 35.0536 166.844V170.113H34.2894V166.872C34.2894 166.218 33.8843 165.795 33.2305 165.795C32.319 165.795 31.7849 166.403 31.7757 167.148V170.113H31.0207V166.872C31.0207 166.218 30.6156 165.795 29.9619 165.795C29.0503 165.795 28.5163 166.403 28.5071 167.148V170.113ZM37.8235 170.187C36.7186 170.187 36.0096 169.616 36.0096 168.723C36.0096 167.599 37.0961 167.388 38.0721 167.286C38.8179 167.213 39.4625 167.222 39.4717 166.826C39.4625 166.209 38.956 165.776 38.2194 165.776C37.5105 165.776 36.958 166.172 36.8751 166.752H36.1201C36.2122 165.795 37.0777 165.123 38.2379 165.123C39.444 165.123 40.2175 165.841 40.2175 166.872V169.248C40.2175 169.404 40.3003 169.487 40.4661 169.487H40.7423V170.113H40.3096C39.7847 170.113 39.5085 169.874 39.5085 169.423V169.275C39.2231 169.837 38.6706 170.187 37.8235 170.187ZM37.934 169.533C38.8456 169.533 39.4717 168.953 39.4717 168.143V167.507C39.2599 167.793 38.7166 167.848 38.1182 167.913C37.446 167.986 36.7739 168.078 36.7739 168.704C36.7739 169.211 37.2342 169.533 37.934 169.533ZM42.3633 170.113H41.5991V165.233H42.2068L42.2805 165.979C42.6119 165.463 43.2473 165.123 43.9747 165.123C45.0243 165.123 45.7241 165.804 45.7241 166.881V170.113H44.9599V166.909C44.9599 166.228 44.5179 165.795 43.7813 165.795C42.9066 165.795 42.3725 166.403 42.3633 167.148V170.113ZM49.1044 170.214C47.5207 170.214 46.6736 169.054 46.6736 167.646C46.6736 166.007 47.7509 165.123 49.0768 165.123C50.3014 165.123 51.1761 165.859 51.3142 167.111H50.5684C50.4395 166.301 49.8778 165.786 49.0584 165.786C48.0916 165.786 47.4471 166.495 47.4471 167.646C47.4471 168.889 48.2021 169.551 49.1136 169.551C49.8963 169.551 50.4303 169.054 50.5684 168.207H51.3142C51.1761 169.469 50.3658 170.214 49.1044 170.214ZM54.4718 170.214C53.0263 170.214 52.0687 169.156 52.0687 167.692C52.0687 166.025 53.146 165.123 54.3798 165.123C55.7241 165.123 56.5896 166.025 56.6172 167.59V167.802H52.8329C52.8789 168.843 53.4866 169.551 54.4718 169.551C55.1532 169.551 55.6504 169.211 55.853 168.575H56.5988C56.3778 169.579 55.586 170.214 54.4718 170.214ZM52.8789 167.167H55.8161C55.678 166.31 55.1624 165.786 54.3798 165.786C53.6063 165.786 53.0355 166.292 52.8789 167.167Z" fill="#0F3239"/>
<path d="M177.471 4.07769C176.358 4.07769 175.648 3.31116 175.648 2.17691C175.648 1.07891 176.342 0.296839 177.471 0.296839C178.414 0.296839 179.061 0.845839 179.217 1.77292H178.58C178.466 1.20321 178.046 0.856197 177.471 0.856197C176.741 0.856197 176.285 1.36894 176.285 2.17691C176.285 3.00558 176.741 3.51315 177.471 3.51315C178.056 3.51315 178.466 3.1765 178.58 2.6016H179.217C179.051 3.54423 178.419 4.07769 177.471 4.07769ZM180.845 4H180.224V0.374528H181.995C182.684 0.374528 183.161 0.794047 183.161 1.40002C183.161 1.84543 182.845 2.21316 182.363 2.33746C182.601 2.38408 182.772 2.52909 182.86 2.7518L183.326 4H182.663L182.244 2.85539C182.192 2.71037 182.073 2.63268 181.907 2.63268H180.845V4ZM180.845 0.933886V2.08368H181.964C182.347 2.08368 182.544 1.80918 182.544 1.49324C182.544 1.16177 182.316 0.933886 181.964 0.933886H180.845ZM186.824 4H184.239V0.374528H186.777V0.933886H184.856V1.86615H186.596V2.40997H184.856V3.44064H186.824V4ZM189.125 4H187.82V0.374528H189.125C190.202 0.374528 190.953 1.10998 190.953 2.16655C190.953 3.24901 190.202 4 189.125 4ZM188.441 0.933886V3.44064H189.167C189.84 3.44064 190.311 2.91754 190.311 2.16655C190.311 1.45699 189.84 0.933886 189.167 0.933886H188.441ZM192.578 4H191.957V0.374528H192.578V4ZM195.347 4H194.726V0.933886H193.514V0.374528H196.554V0.933886H195.347V4ZM200.694 4.07769C199.58 4.07769 198.871 3.31116 198.871 2.17691C198.871 1.07891 199.565 0.296839 200.694 0.296839C201.637 0.296839 202.284 0.845839 202.439 1.77292H201.802C201.688 1.20321 201.269 0.856197 200.694 0.856197C199.964 0.856197 199.508 1.36894 199.508 2.17691C199.508 3.00558 199.964 3.51315 200.694 3.51315C201.279 3.51315 201.688 3.1765 201.802 2.6016H202.439C202.274 3.54423 201.642 4.07769 200.694 4.07769ZM203.607 4H202.965L204.446 0.374528H205.067L206.554 4H205.912L205.544 3.10399H203.975L203.607 4ZM204.762 1.17731L204.197 2.55499H205.321L204.762 1.17731ZM208.058 4H207.437V0.374528H209.208C209.897 0.374528 210.374 0.794047 210.374 1.40002C210.374 1.84543 210.058 2.21316 209.576 2.33746C209.814 2.38408 209.985 2.52909 210.073 2.7518L210.539 4H209.876L209.457 2.85539C209.405 2.71037 209.286 2.63268 209.12 2.63268H208.058V4ZM208.058 0.933886V2.08368H209.177C209.56 2.08368 209.757 1.80918 209.757 1.49324C209.757 1.16177 209.529 0.933886 209.177 0.933886H208.058ZM212.758 4H211.453V0.374528H212.758C213.835 0.374528 214.586 1.10998 214.586 2.16655C214.586 3.24901 213.835 4 212.758 4ZM212.074 0.933886V3.44064H212.799C213.472 3.44064 213.944 2.91754 213.944 2.16655C213.944 1.45699 213.472 0.933886 212.799 0.933886H212.074Z" fill="#0F3239"/>
<path fill-rule="evenodd" clip-rule="evenodd" d="M199.542 25.7202L193.666 31.9546L190.335 28.4209L191.369 27.446L193.666 29.8823L198.508 24.7452L199.542 25.7202Z" fill="#645CF7"/>
<path d="M191.418 56.3962L190.335 57.4795L193.855 61L190.335 64.5205L191.418 65.6037L194.939 62.0833L198.459 65.6037L199.542 64.5205L196.022 61L199.542 57.4795L198.459 56.3963L194.939 59.9168L191.418 56.3962Z" fill="#0F3239" fill-opacity="0.2"/>
<path d="M191.418 95.5283L190.335 96.6115L193.855 100.132L190.335 103.653L191.418 104.736L194.939 101.215L198.459 104.736L199.542 103.653L196.022 100.132L199.542 96.6115L198.459 95.5283L194.939 99.0488L191.418 95.5283Z" fill="#0F3239" fill-opacity="0.2"/>
<path d="M191.418 148.472L190.335 149.555L193.855 153.075L190.335 156.596L191.418 157.679L194.939 154.159L198.459 157.679L199.542 156.596L196.022 153.075L199.542 149.555L198.459 148.472L194.939 151.992L191.418 148.472Z" fill="#0F3239" fill-opacity="0.2"/>
<path d="M232.722 4H230.971V0.374528H232.691C233.348 0.374528 233.809 0.747433 233.809 1.29125C233.809 1.70559 233.509 2.02671 233.064 2.13547C233.566 2.21316 233.887 2.55499 233.887 3.01594C233.887 3.59602 233.411 4 232.722 4ZM231.587 0.928707V1.88687H232.67C232.981 1.88687 233.193 1.6797 233.193 1.38966C233.193 1.12034 232.996 0.928707 232.717 0.928707H231.587ZM231.587 2.42551V3.44064H232.753C233.064 3.44064 233.255 3.21793 233.255 2.9279C233.255 2.63268 233.027 2.42551 232.696 2.42551H231.587ZM235.243 4H234.601L236.082 0.374528H236.703L238.19 4H237.548L237.18 3.10399H235.611L235.243 4ZM236.398 1.17731L235.833 2.55499H236.957L236.398 1.17731ZM239.695 4H239.073V0.374528H239.746L241.544 3.10399V0.374528H242.165V4H241.492L239.695 1.27054V4ZM243.958 4H243.336V0.374528H243.958V2.15101L245.605 0.374528H246.392L244.973 1.86097L246.496 4H245.734L244.543 2.31157L243.958 2.92272V4ZM251.37 4H248.899V0.374528H249.521V3.44064H251.37V4ZM253.762 4.07769C252.69 4.07769 251.955 3.33188 251.955 2.17691C251.955 1.07891 252.649 0.296839 253.762 0.296839C254.84 0.296839 255.58 1.03747 255.58 2.17691C255.58 3.28526 254.881 4.07769 253.762 4.07769ZM253.762 3.51315C254.488 3.51315 254.949 2.99523 254.949 2.17691C254.949 1.36894 254.488 0.856197 253.762 0.856197C253.043 0.856197 252.587 1.36894 252.587 2.17691C252.587 2.99523 253.043 3.51315 253.762 3.51315ZM256.741 4H256.099L257.58 0.374528H258.202L259.688 4H259.046L258.678 3.10399H257.109L256.741 4ZM257.896 1.17731L257.332 2.55499H258.456L257.896 1.17731ZM261.193 4H260.572V0.374528H261.245L263.042 3.10399V0.374528H263.664V4H262.99L261.193 1.27054V4Z" fill="#0F3239"/>
<path d="M243.786 24.1698L242.703 25.253L246.223 28.7736L242.703 32.2941L243.786 33.3773L247.307 29.8568L250.827 33.3773L251.91 32.294L248.39 28.7736L251.91 25.2531L250.827 24.1698L247.307 27.6904L243.786 24.1698Z" fill="#0F3239" fill-opacity="0.2"/>
<path d="M243.786 56.3962L242.703 57.4795L246.224 61L242.703 64.5205L243.786 65.6037L247.307 62.0833L250.827 65.6037L251.91 64.5205L248.39 61L251.911 57.4795L250.827 56.3963L247.307 59.9168L243.786 56.3962Z" fill="#0F3239" fill-opacity="0.2"/>
<path d="M243.786 95.5283L242.703 96.6115L246.224 100.132L242.703 103.653L243.786 104.736L247.307 101.215L250.827 104.736L251.91 103.653L248.39 100.132L251.911 96.6115L250.827 95.5283L247.307 99.0488L243.786 95.5283Z" fill="#0F3239" fill-opacity="0.2"/>
<path d="M243.786 148.472L242.703 149.555L246.224 153.075L242.703 156.596L243.786 157.679L247.307 154.159L250.827 157.679L251.91 156.596L248.39 153.075L251.911 149.555L250.827 148.472L247.307 151.992L243.786 148.472Z" fill="#0F3239" fill-opacity="0.2"/>
<path d="M282.992 4H280.522V0.374528H281.144V3.44064H282.992V4ZM286.54 4H283.956V0.374528H286.494V0.933886H284.572V1.86615H286.312V2.40997H284.572V3.44064H286.54V4ZM288.158 4H287.536V0.374528H288.21L290.007 3.10399V0.374528H290.628V4H289.955L288.158 1.27054V4ZM293.105 4H291.8V0.374528H293.105C294.182 0.374528 294.933 1.10998 294.933 2.16655C294.933 3.24901 294.182 4 293.105 4ZM292.421 0.933886V3.44064H293.146C293.82 3.44064 294.291 2.91754 294.291 2.16655C294.291 1.45699 293.82 0.933886 293.146 0.933886H292.421ZM296.558 4H295.937V0.374528H296.558V4ZM298.343 4H297.722V0.374528H298.395L300.192 3.10399V0.374528H300.814V4H300.14L298.343 1.27054V4ZM303.549 4.07769C302.534 4.07769 301.819 3.33188 301.819 2.17691C301.819 1.07891 302.513 0.296839 303.637 0.296839C304.58 0.296839 305.227 0.856197 305.383 1.77292H304.746C304.632 1.20321 304.212 0.856197 303.637 0.856197C302.912 0.856197 302.456 1.36376 302.456 2.17691C302.456 3.00041 302.917 3.51315 303.611 3.51315C304.176 3.51315 304.544 3.14542 304.544 2.6275H303.451V2.1044H304.689C305.155 2.1044 305.409 2.33746 305.409 2.7777V4H304.86V2.89164H304.849C304.777 3.61674 304.3 4.07769 303.549 4.07769ZM308.645 4H308.023V0.374528H310.592V0.933886H308.645V1.93348H310.452V2.49284H308.645V4ZM312.18 4H311.558V0.374528H312.18V4ZM313.965 4H313.343V0.374528H315.115C315.804 0.374528 316.28 0.794047 316.28 1.40002C316.28 1.84543 315.964 2.21316 315.482 2.33746C315.721 2.38408 315.892 2.52909 315.98 2.7518L316.446 4H315.783L315.363 2.85539C315.312 2.71037 315.192 2.63268 315.027 2.63268H313.965V4ZM313.965 0.933886V2.08368H315.084C315.467 2.08368 315.664 1.80918 315.664 1.49324C315.664 1.16177 315.436 0.933886 315.084 0.933886H313.965ZM317.98 4H317.359V0.374528H318.126L319.26 3.25419L320.389 0.374528H321.155V4H320.534V1.44663L319.529 4H318.985L317.98 1.45181V4Z" fill="#0F3239"/>
<path d="M296.729 24.1698L295.646 25.253L299.167 28.7736L295.646 32.2941L296.729 33.3773L300.25 29.8568L303.77 33.3773L304.854 32.294L301.333 28.7736L304.854 25.2531L303.77 24.1698L300.25 27.6904L296.729 24.1698Z" fill="#0F3239" fill-opacity="0.2"/>
<path d="M296.729 56.3962L295.646 57.4795L299.167 61L295.646 64.5205L296.729 65.6037L300.25 62.0833L303.77 65.6037L304.853 64.5205L301.333 61L304.854 57.4795L303.77 56.3963L300.25 59.9168L296.729 56.3962Z" fill="#0F3239" fill-opacity="0.2"/>
<path d="M296.729 95.5283L295.646 96.6115L299.167 100.132L295.646 103.653L296.729 104.736L300.25 101.215L303.77 104.736L304.853 103.653L301.333 100.132L304.854 96.6115L303.77 95.5283L300.25 99.0488L296.729 95.5283Z" fill="#0F3239" fill-opacity="0.2"/>
<path d="M296.729 148.472L295.646 149.555L299.167 153.075L295.646 156.596L296.729 157.679L300.25 154.159L303.77 157.679L304.853 156.596L301.333 153.075L304.854 149.555L303.77 148.472L300.25 151.992L296.729 148.472Z" fill="#0F3239" fill-opacity="0.2"/>
<g clip-path="url(#clip0_1153_954)">
<path d="M129.991 5.79305V0.419621H131.372L131.412 1.51673L131.128 1.63925C131.207 1.3883 131.345 1.15999 131.531 0.973559C131.73 0.769631 131.966 0.605785 132.227 0.490906C132.495 0.36944 132.786 0.307019 133.081 0.30787C133.487 0.30787 133.827 0.389054 134.102 0.551423C134.383 0.722817 134.601 0.98166 134.721 1.2884C134.86 1.61685 134.93 2.02166 134.93 2.50283V5.79305H133.485V2.61198C133.491 2.40432 133.456 2.19745 133.383 2.0031C133.324 1.85089 133.215 1.72348 133.074 1.64222C132.915 1.56057 132.737 1.52713 132.56 1.54606C132.406 1.54392 132.253 1.56906 132.109 1.62032C131.976 1.66648 131.855 1.74025 131.753 1.83677C131.656 1.92996 131.577 2.04005 131.519 2.16163C131.461 2.28616 131.431 2.42238 131.433 2.56V5.79343H129.991V5.79305Z" fill="#3ACE63"/>
<path d="M135.792 5.79305V0.419621H137.183L137.234 2.14715L136.989 1.7911C137.069 1.51491 137.204 1.25748 137.385 1.03371C137.56 0.812735 137.78 0.631091 138.03 0.500559C138.269 0.373806 138.536 0.307526 138.807 0.307498C138.919 0.307299 139.031 0.31749 139.141 0.337942C139.234 0.354355 139.326 0.377939 139.415 0.408483L139.031 1.99419C138.936 1.94827 138.837 1.91195 138.736 1.88577C138.62 1.85502 138.5 1.83967 138.381 1.84011C138.226 1.83855 138.072 1.86796 137.928 1.92661C137.792 1.98201 137.67 2.06508 137.567 2.17054C137.465 2.27769 137.384 2.40378 137.329 2.54181C137.27 2.69078 137.241 2.84962 137.243 3.00962V5.79416L135.792 5.79305Z" fill="black"/>
<path d="M141.845 5.89668C141.414 5.90124 140.991 5.77334 140.635 5.53023C140.269 5.2781 139.975 4.93479 139.782 4.53411C139.572 4.11331 139.467 3.6324 139.467 3.09133C139.466 2.55027 139.573 2.07108 139.786 1.65377C139.985 1.25466 140.284 0.914618 140.655 0.66767C141.026 0.42566 141.461 0.300119 141.904 0.307166C142.152 0.304536 142.398 0.344344 142.632 0.424858C142.842 0.497208 143.038 0.605493 143.211 0.744895C143.375 0.878211 143.518 1.03585 143.634 1.21233C143.747 1.3861 143.829 1.57835 143.876 1.78037L143.571 1.72951V0.41966H145.006V5.79309H143.553V4.50218L143.878 4.47211C143.821 4.66554 143.732 4.84768 143.613 5.01045C143.487 5.18409 143.335 5.33684 143.162 5.46303C142.977 5.59751 142.773 5.70361 142.558 5.77787C142.328 5.85743 142.087 5.8976 141.845 5.89668ZM142.24 4.64698C142.491 4.65251 142.738 4.58534 142.952 4.45354C143.158 4.32207 143.322 4.13436 143.424 3.9126C143.54 3.65632 143.598 3.37717 143.592 3.09579C143.598 2.81884 143.54 2.54413 143.424 2.29273C143.319 2.07234 143.156 1.88514 142.952 1.75178C142.739 1.61699 142.492 1.54801 142.24 1.55353C141.994 1.54837 141.751 1.61745 141.545 1.75178C141.342 1.88663 141.179 2.07279 141.072 2.29124C140.953 2.54171 140.894 2.81679 140.9 3.0943C140.893 3.37625 140.953 3.65582 141.072 3.91111C141.177 4.13213 141.34 4.31992 141.545 4.45354C141.753 4.58471 141.995 4.65195 142.24 4.64698Z" fill="black"/>
<path d="M145.917 5.79306V0.419635H147.31L147.339 1.4462L147.126 1.48667C147.273 1.13561 147.527 0.84023 147.853 0.64314C148.017 0.543454 148.193 0.464042 148.376 0.40664C148.553 0.350212 148.738 0.321166 148.924 0.320505C149.181 0.316828 149.436 0.361673 149.675 0.452678C149.897 0.539077 150.093 0.680676 150.245 0.864047C150.416 1.0817 150.541 1.33267 150.61 1.60102L150.388 1.5806L150.459 1.41799C150.547 1.25454 150.66 1.10544 150.793 0.9758C150.93 0.841923 151.084 0.725578 151.25 0.629403C151.417 0.532576 151.594 0.455926 151.779 0.401071C151.954 0.347928 152.136 0.32054 152.32 0.319763C152.739 0.319763 153.088 0.402805 153.366 0.568886C153.65 0.742649 153.869 1.00495 153.99 1.31551C154.129 1.64718 154.198 2.0536 154.199 2.53477V5.79306H152.753V2.63427C152.76 2.42957 152.726 2.22557 152.652 2.03467C152.593 1.88952 152.49 1.76667 152.358 1.68382C152.205 1.60022 152.033 1.5599 151.86 1.56724C151.712 1.56551 151.565 1.59132 151.427 1.64335C151.299 1.69159 151.182 1.76394 151.082 1.85646C150.982 1.94908 150.902 2.06167 150.849 2.18692C150.796 2.31217 150.769 2.44726 150.771 2.58341V5.79455H149.329V2.62388C149.334 2.4271 149.297 2.23156 149.221 2.04989C149.16 1.9025 149.055 1.77695 148.922 1.68939C148.778 1.60366 148.612 1.56126 148.444 1.56724C148.296 1.56545 148.15 1.59127 148.011 1.64335C147.885 1.69074 147.769 1.76323 147.671 1.85646C147.576 1.94847 147.499 2.05705 147.443 2.17687C147.385 2.30082 147.355 2.43617 147.356 2.57301V5.79455L145.917 5.79306Z" fill="black"/>
<path d="M155.124 8.03029V0.419209H156.515L156.555 1.62881L156.291 1.53748C156.345 1.30727 156.467 1.09854 156.641 0.937876C156.842 0.746118 157.079 0.594858 157.337 0.49235C157.614 0.377233 157.911 0.318539 158.211 0.31971C158.652 0.312266 159.086 0.437884 159.455 0.680213C159.824 0.927971 160.122 1.26772 160.32 1.66594C160.533 2.08301 160.64 2.56232 160.64 3.10388C160.648 3.5994 160.541 4.09002 160.325 4.53625C160.131 4.93823 159.832 5.28054 159.459 5.52717C159.088 5.76936 158.653 5.89503 158.21 5.88805C157.905 5.88924 157.602 5.82861 157.321 5.70984C157.054 5.60069 156.811 5.44026 156.605 5.23758C156.424 5.06765 156.297 4.84816 156.239 4.60642L156.574 4.46422V8.03066L155.124 8.03029ZM157.886 4.64689C158.135 4.65168 158.379 4.58448 158.59 4.45346C158.796 4.32132 158.961 4.1339 159.067 3.91251C159.186 3.66023 159.245 3.38368 159.24 3.10462C159.246 2.82707 159.187 2.55198 159.067 2.30156C158.962 2.08141 158.798 1.89421 158.594 1.76024C158.384 1.62874 158.139 1.56164 157.891 1.56718C157.641 1.56163 157.395 1.62689 157.181 1.75542C156.973 1.88538 156.807 2.07225 156.703 2.29376C156.59 2.54795 156.531 2.82324 156.531 3.10165C156.531 3.38006 156.59 3.65535 156.703 3.90954C156.807 4.13561 156.976 4.326 157.187 4.45698C157.399 4.58797 157.645 4.65376 157.893 4.64615L157.886 4.64689Z" fill="black"/>
<path d="M126.304 0C125.518 0.000931603 124.763 0.314019 124.207 0.87054C123.651 1.42706 123.338 2.18154 123.338 2.96837V3.06334H124.82V2.96837C124.82 2.67463 124.907 2.38749 125.071 2.14326C125.234 1.89902 125.466 1.70867 125.737 1.59626C126.009 1.48385 126.307 1.45444 126.595 1.51175C126.883 1.56905 127.148 1.7105 127.356 1.9182C127.563 2.1259 127.705 2.39054 127.762 2.67863C127.819 2.96672 127.79 3.26534 127.678 3.53672C127.565 3.8081 127.375 4.04003 127.131 4.20325C126.886 4.36642 126.599 4.45352 126.306 4.45352H126.211V5.93634H126.306C127.092 5.93634 127.847 5.62377 128.403 5.06738C128.96 4.51099 129.272 3.75638 129.272 2.96954C129.272 2.1827 128.96 1.42808 128.403 0.871695C127.847 0.315309 127.092 0.00273551 126.306 0.00273551L126.304 0Z" fill="#3ACE63"/>
<path d="M126.21 5.9336V3.40767C126.21 3.31603 126.173 3.22825 126.108 3.16357C126.043 3.09888 125.955 3.06256 125.864 3.06256H123.338L126.21 5.9336Z" fill="#177A33"/>
</g>
<path fill-rule="evenodd" clip-rule="evenodd" d="M146.599 25.7202L140.722 31.9546L137.392 28.4209L138.426 27.446L140.722 29.8823L145.565 24.7452L146.599 25.7202Z" fill="#645CF7"/>
<path fill-rule="evenodd" clip-rule="evenodd" d="M146.599 57.9466L140.723 64.181L137.392 60.6473L138.426 59.6723L140.723 62.1087L145.565 56.9716L146.599 57.9466Z" fill="#645CF7"/>
<path fill-rule="evenodd" clip-rule="evenodd" d="M146.599 97.0787L140.723 103.313L137.392 99.7794L138.426 98.8044L140.723 101.241L145.565 96.1037L146.599 97.0787Z" fill="#645CF7"/>
<path fill-rule="evenodd" clip-rule="evenodd" d="M146.599 150.022L140.723 156.256L137.392 152.723L138.426 151.748L140.723 154.184L145.565 149.047L146.599 150.022Z" fill="#645CF7"/>
<line x1="116.099" y1="12.6603" x2="116.099" y2="183" stroke="black" stroke-width="0.575472"/>
<line x1="168.467" y1="12.6603" x2="168.467" y2="183" stroke="black" stroke-width="0.575472"/>
<line x1="220.835" y1="12.6603" x2="220.835" y2="183" stroke="black" stroke-width="0.575472"/>
<line x1="273.778" y1="12.6603" x2="273.778" y2="183" stroke="black" stroke-width="0.575472"/>
<defs>
<clipPath id="clip0_1153_954">
<rect width="37.3128" height="8.0566" fill="white" transform="translate(123.338)"/>
</clipPath>
</defs>
</svg>
