<svg width="970" height="305" viewBox="0 0 970 305" fill="none" xmlns="http://www.w3.org/2000/svg">
<rect y="49" width="970" height="64" rx="8" fill="#EBEBEB"/>
<rect y="177" width="970" height="64" rx="8" fill="#EBEBEB"/>
<path d="M251.088 85H249.168V73.8H257.104V75.528H251.088V78.616H256.672V80.344H251.088V85ZM261.213 85.176C259.261 85.176 257.981 84.232 257.997 82.648C258.013 80.664 259.981 80.248 261.629 80.056C262.909 79.912 263.853 79.864 263.869 79.192C263.853 78.36 263.213 77.816 262.125 77.816C261.005 77.816 260.205 78.424 260.093 79.304H258.189C258.365 77.512 259.965 76.264 262.157 76.264C264.445 76.264 265.709 77.512 265.709 79.32V83.16C265.709 83.4 265.837 83.528 266.125 83.528H266.589V85H265.693C264.829 85 264.301 84.648 264.157 84.008C264.125 83.928 264.093 83.816 264.077 83.72C263.581 84.632 262.653 85.176 261.213 85.176ZM261.597 83.688C262.893 83.688 263.869 82.952 263.869 81.816V80.632C263.549 81.128 262.733 81.24 261.837 81.352C260.781 81.48 259.901 81.624 259.901 82.52C259.901 83.256 260.493 83.688 261.597 83.688ZM271.211 85.24C268.891 85.24 267.515 84.152 267.403 82.296H269.227C269.291 83.208 270.075 83.688 271.115 83.688C272.075 83.688 272.587 83.32 272.587 82.664C272.587 82.008 272.043 81.88 271.307 81.64L270.187 81.272C268.779 80.808 267.563 80.328 267.563 78.76C267.563 77.256 268.715 76.264 270.747 76.264C272.715 76.264 274.059 77.304 274.283 79.224H272.491C272.395 78.264 271.707 77.816 270.731 77.816C269.899 77.816 269.419 78.168 269.419 78.744C269.419 79.4 270.155 79.576 270.763 79.784L271.787 80.12C273.467 80.68 274.475 81.192 274.475 82.712C274.475 84.28 273.291 85.24 271.211 85.24ZM280.449 85H279.361C277.521 85 276.529 84.088 276.529 82.408V78.12H275.041V76.52H276.529V73.624H278.417V76.52H280.609V78.12H278.417V82.28C278.417 83 278.785 83.4 279.489 83.4H280.449V85ZM288.276 85.176C286.324 85.176 285.044 84.232 285.06 82.648C285.076 80.664 287.044 80.248 288.692 80.056C289.972 79.912 290.916 79.864 290.932 79.192C290.916 78.36 290.276 77.816 289.188 77.816C288.068 77.816 287.268 78.424 287.156 79.304H285.252C285.428 77.512 287.028 76.264 289.22 76.264C291.508 76.264 292.772 77.512 292.772 79.32V83.16C292.772 83.4 292.9 83.528 293.188 83.528H293.652V85H292.756C291.892 85 291.364 84.648 291.22 84.008C291.188 83.928 291.156 83.816 291.14 83.72C290.644 84.632 289.716 85.176 288.276 85.176ZM288.66 83.688C289.956 83.688 290.932 82.952 290.932 81.816V80.632C290.612 81.128 289.796 81.24 288.9 81.352C287.844 81.48 286.964 81.624 286.964 82.52C286.964 83.256 287.556 83.688 288.66 83.688ZM298.834 85.24C296.066 85.24 294.45 83.256 294.45 80.696C294.45 77.912 296.322 76.264 298.786 76.264C301.106 76.264 302.674 77.688 302.834 79.8H300.978C300.802 78.632 299.97 77.88 298.77 77.88C297.33 77.88 296.37 78.968 296.37 80.696C296.37 82.552 297.426 83.624 298.834 83.624C299.986 83.624 300.786 82.888 300.978 81.672H302.834C302.61 83.864 301.09 85.24 298.834 85.24ZM308.24 85.24C305.472 85.24 303.856 83.256 303.856 80.696C303.856 77.912 305.728 76.264 308.192 76.264C310.512 76.264 312.08 77.688 312.24 79.8H310.384C310.208 78.632 309.376 77.88 308.176 77.88C306.736 77.88 305.776 78.968 305.776 80.696C305.776 82.552 306.832 83.624 308.24 83.624C309.392 83.624 310.192 82.888 310.384 81.672H312.24C312.016 83.864 310.496 85.24 308.24 85.24ZM317.63 85.24C315.038 85.24 313.262 83.384 313.262 80.792C313.262 77.992 315.102 76.264 317.47 76.264C319.87 76.264 321.47 77.944 321.518 80.696V81.144H315.15C315.278 82.632 316.206 83.64 317.646 83.64C318.622 83.64 319.358 83.16 319.646 82.312H321.486C321.054 84.136 319.63 85.24 317.63 85.24ZM315.23 79.816H319.566C319.326 78.6 318.574 77.864 317.47 77.864C316.35 77.864 315.518 78.6 315.23 79.816ZM326.367 85.24C324.047 85.24 322.671 84.152 322.559 82.296H324.383C324.447 83.208 325.231 83.688 326.271 83.688C327.231 83.688 327.743 83.32 327.743 82.664C327.743 82.008 327.199 81.88 326.463 81.64L325.343 81.272C323.935 80.808 322.719 80.328 322.719 78.76C322.719 77.256 323.871 76.264 325.903 76.264C327.871 76.264 329.215 77.304 329.439 79.224H327.647C327.551 78.264 326.863 77.816 325.887 77.816C325.055 77.816 324.575 78.168 324.575 78.744C324.575 79.4 325.311 79.576 325.919 79.784L326.943 80.12C328.623 80.68 329.631 81.192 329.631 82.712C329.631 84.28 328.447 85.24 326.367 85.24ZM334.367 85.24C332.047 85.24 330.671 84.152 330.559 82.296H332.383C332.447 83.208 333.231 83.688 334.271 83.688C335.231 83.688 335.743 83.32 335.743 82.664C335.743 82.008 335.199 81.88 334.463 81.64L333.343 81.272C331.935 80.808 330.719 80.328 330.719 78.76C330.719 77.256 331.871 76.264 333.903 76.264C335.871 76.264 337.215 77.304 337.439 79.224H335.647C335.551 78.264 334.863 77.816 333.887 77.816C333.055 77.816 332.575 78.168 332.575 78.744C332.575 79.4 333.311 79.576 333.919 79.784L334.943 80.12C336.623 80.68 337.631 81.192 337.631 82.712C337.631 84.28 336.447 85.24 334.367 85.24ZM347.34 85H346.252C344.412 85 343.42 84.088 343.42 82.408V78.12H341.932V76.52H343.42V73.624H345.308V76.52H347.5V78.12H345.308V82.28C345.308 83 345.676 83.4 346.38 83.4H347.34V85ZM352.614 85.24C349.862 85.24 348.262 83.304 348.262 80.68C348.262 77.912 350.134 76.264 352.614 76.264C355.35 76.264 356.95 78.184 356.95 80.68C356.95 83.544 355.142 85.24 352.614 85.24ZM352.614 83.624C354.134 83.624 355.03 82.376 355.03 80.68C355.03 79 354.086 77.88 352.614 77.88C351.142 77.88 350.182 79 350.182 80.68C350.182 82.536 351.222 83.624 352.614 83.624ZM365.849 85.24C363.081 85.24 361.465 83.256 361.465 80.696C361.465 77.912 363.337 76.264 365.801 76.264C368.121 76.264 369.689 77.688 369.849 79.8H367.993C367.817 78.632 366.985 77.88 365.785 77.88C364.345 77.88 363.385 78.968 363.385 80.696C363.385 82.552 364.441 83.624 365.849 83.624C367.001 83.624 367.801 82.888 367.993 81.672H369.849C369.625 83.864 368.105 85.24 365.849 85.24ZM374.119 85.176C372.167 85.176 370.887 84.232 370.903 82.648C370.919 80.664 372.887 80.248 374.535 80.056C375.815 79.912 376.759 79.864 376.775 79.192C376.759 78.36 376.119 77.816 375.031 77.816C373.911 77.816 373.111 78.424 372.999 79.304H371.095C371.271 77.512 372.871 76.264 375.063 76.264C377.351 76.264 378.615 77.512 378.615 79.32V83.16C378.615 83.4 378.743 83.528 379.031 83.528H379.495V85H378.599C377.735 85 377.207 84.648 377.063 84.008C377.031 83.928 376.999 83.816 376.983 83.72C376.487 84.632 375.559 85.176 374.119 85.176ZM374.503 83.688C375.799 83.688 376.775 82.952 376.775 81.816V80.632C376.455 81.128 375.639 81.24 374.743 81.352C373.687 81.48 372.807 81.624 372.807 82.52C372.807 83.256 373.399 83.688 374.503 83.688ZM384.117 85.24C381.797 85.24 380.421 84.152 380.309 82.296H382.133C382.197 83.208 382.981 83.688 384.021 83.688C384.981 83.688 385.493 83.32 385.493 82.664C385.493 82.008 384.949 81.88 384.213 81.64L383.093 81.272C381.685 80.808 380.469 80.328 380.469 78.76C380.469 77.256 381.621 76.264 383.653 76.264C385.621 76.264 386.965 77.304 387.189 79.224H385.397C385.301 78.264 384.613 77.816 383.637 77.816C382.805 77.816 382.325 78.168 382.325 78.744C382.325 79.4 383.061 79.576 383.669 79.784L384.693 80.12C386.373 80.68 387.381 81.192 387.381 82.712C387.381 84.28 386.197 85.24 384.117 85.24ZM390.661 85H388.773V73H390.661V77.432C391.237 76.728 392.213 76.264 393.317 76.264C395.125 76.264 396.309 77.48 396.309 79.384V85H394.421V79.48C394.421 78.536 393.797 77.912 392.789 77.912C391.509 77.912 390.677 78.76 390.661 79.864V85Z" fill="#0F3239"/>
<path d="M346.8 149H339.168V137.8H341.088V147.272H346.8V149ZM352.192 149.24C349.44 149.24 347.84 147.304 347.84 144.68C347.84 141.912 349.712 140.264 352.192 140.264C354.928 140.264 356.528 142.184 356.528 144.68C356.528 147.544 354.72 149.24 352.192 149.24ZM352.192 147.624C353.712 147.624 354.608 146.376 354.608 144.68C354.608 143 353.664 141.88 352.192 141.88C350.72 141.88 349.76 143 349.76 144.68C349.76 146.536 350.8 147.624 352.192 147.624ZM361.61 149H359.626L357.114 140.52H359.05L360.762 146.664L362.442 140.52H364.01L365.706 146.6L367.386 140.52H369.322L366.81 149H364.858L363.226 143.208L361.61 149ZM376.808 149H374.92V142.12H373.432V140.52H374.92V139.464C374.92 137.864 375.864 137 377.624 137H379.464V138.6H377.752C377.144 138.6 376.808 138.952 376.808 139.592V140.52H379.272V142.12H376.808V149ZM384.224 149.24C381.632 149.24 379.856 147.384 379.856 144.792C379.856 141.992 381.696 140.264 384.064 140.264C386.464 140.264 388.064 141.944 388.112 144.696V145.144H381.744C381.872 146.632 382.8 147.64 384.24 147.64C385.216 147.64 385.952 147.16 386.24 146.312H388.08C387.648 148.136 386.224 149.24 384.224 149.24ZM381.824 143.816H386.16C385.92 142.6 385.168 141.864 384.064 141.864C382.944 141.864 382.112 142.6 381.824 143.816ZM393.505 149.24C390.913 149.24 389.137 147.384 389.137 144.792C389.137 141.992 390.977 140.264 393.345 140.264C395.745 140.264 397.345 141.944 397.393 144.696V145.144H391.025C391.153 146.632 392.081 147.64 393.521 147.64C394.497 147.64 395.233 147.16 395.521 146.312H397.361C396.929 148.136 395.505 149.24 393.505 149.24ZM391.105 143.816H395.441C395.201 142.6 394.449 141.864 393.345 141.864C392.225 141.864 391.393 142.6 391.105 143.816Z" fill="#0F3239"/>
<path d="M74.088 213H72.168V201.8H80.104V203.528H74.088V206.616H79.672V208.344H74.088V213ZM83.5206 213H81.6326V201H83.5206V213ZM89.3956 213.24C86.8036 213.24 85.0276 211.384 85.0276 208.792C85.0276 205.992 86.8676 204.264 89.2356 204.264C91.6356 204.264 93.2356 205.944 93.2836 208.696V209.144H86.9156C87.0436 210.632 87.9716 211.64 89.4116 211.64C90.3876 211.64 91.1236 211.16 91.4116 210.312H93.2516C92.8196 212.136 91.3956 213.24 89.3956 213.24ZM86.9956 207.816H91.3316C91.0916 206.6 90.3396 205.864 89.2356 205.864C88.1156 205.864 87.2836 206.6 86.9956 207.816ZM95.6969 213H93.5689L96.6249 208.76L93.6169 204.52H95.7289L97.6969 207.352L99.6489 204.52H101.761L98.7529 208.76L101.809 213H99.6809L97.6969 210.072L95.6969 213ZM103.982 203.384C103.294 203.384 102.766 202.84 102.766 202.152C102.766 201.464 103.294 200.936 103.982 200.936C104.686 200.936 105.198 201.464 105.198 202.152C105.198 202.84 104.686 203.384 103.982 203.384ZM104.926 213H103.038V204.52H104.926V213ZM111.571 213.24C110.227 213.24 109.107 212.568 108.579 211.496L108.403 213H106.883V201H108.771V205.624C109.379 204.792 110.387 204.264 111.587 204.264C113.827 204.264 115.411 206.088 115.411 208.712C115.411 211.384 113.827 213.24 111.571 213.24ZM111.155 211.64C112.531 211.64 113.475 210.44 113.475 208.712C113.475 207.032 112.531 205.864 111.155 205.864C109.763 205.864 108.771 207.016 108.771 208.664C108.771 210.408 109.763 211.64 111.155 211.64ZM118.802 213H116.914V201H118.802V213ZM124.677 213.24C122.085 213.24 120.309 211.384 120.309 208.792C120.309 205.992 122.149 204.264 124.517 204.264C126.917 204.264 128.517 205.944 128.565 208.696V209.144H122.197C122.325 210.632 123.253 211.64 124.693 211.64C125.669 211.64 126.405 211.16 126.693 210.312H128.533C128.101 212.136 126.677 213.24 124.677 213.24ZM122.277 207.816H126.613C126.373 206.6 125.621 205.864 124.517 205.864C123.397 205.864 122.565 206.6 122.277 207.816ZM135.411 213H133.523V204.52H135.043L135.267 206.184C135.811 205.032 136.803 204.424 138.211 204.424H138.531V206.264H138.211C136.451 206.264 135.411 207.208 135.411 208.808V213ZM143.458 213.24C140.866 213.24 139.09 211.384 139.09 208.792C139.09 205.992 140.93 204.264 143.298 204.264C145.698 204.264 147.298 205.944 147.346 208.696V209.144H140.978C141.106 210.632 142.034 211.64 143.474 211.64C144.45 211.64 145.186 211.16 145.474 210.312H147.314C146.882 212.136 145.458 213.24 143.458 213.24ZM141.058 207.816H145.394C145.154 206.6 144.402 205.864 143.298 205.864C142.178 205.864 141.346 206.6 141.058 207.816ZM150.739 216.2H148.835V204.52H150.355L150.547 205.912C151.107 204.92 152.211 204.264 153.555 204.264C155.795 204.264 157.379 206.088 157.379 208.712C157.379 211.384 155.795 213.24 153.539 213.24C152.323 213.24 151.315 212.696 150.739 211.816V216.2ZM153.123 211.64C154.499 211.64 155.443 210.44 155.443 208.712C155.443 207.032 154.499 205.864 153.107 205.864C151.715 205.864 150.739 207.016 150.739 208.664C150.739 210.408 151.715 211.64 153.123 211.64ZM161.651 213.176C159.699 213.176 158.419 212.232 158.435 210.648C158.451 208.664 160.419 208.248 162.067 208.056C163.347 207.912 164.291 207.864 164.307 207.192C164.291 206.36 163.651 205.816 162.563 205.816C161.443 205.816 160.643 206.424 160.531 207.304H158.627C158.803 205.512 160.403 204.264 162.595 204.264C164.883 204.264 166.147 205.512 166.147 207.32V211.16C166.147 211.4 166.275 211.528 166.563 211.528H167.027V213H166.131C165.267 213 164.739 212.648 164.595 212.008C164.563 211.928 164.531 211.816 164.515 211.72C164.019 212.632 163.091 213.176 161.651 213.176ZM162.035 211.688C163.331 211.688 164.307 210.952 164.307 209.816V208.632C163.987 209.128 163.171 209.24 162.275 209.352C161.219 209.48 160.339 209.624 160.339 210.52C160.339 211.256 160.931 211.688 162.035 211.688ZM169.164 216.2H167.628V214.6H169.164C169.868 214.6 170.252 214.344 170.412 213.896L170.748 213H170.396L167.036 204.52H169.068L171.5 210.952L173.884 204.52H175.852L172.156 214.456C171.724 215.592 170.828 216.2 169.164 216.2ZM178.911 213H177.023V204.52H178.543L178.687 205.704C179.215 204.872 180.255 204.264 181.519 204.264C182.735 204.264 183.663 204.872 184.111 205.848C184.591 204.952 185.679 204.264 187.023 204.264C188.799 204.264 189.935 205.528 189.935 207.352V213H188.031V207.448C188.031 206.504 187.455 205.896 186.543 205.896C185.247 205.896 184.431 206.744 184.415 207.864V213H182.527V207.448C182.527 206.504 181.951 205.896 181.039 205.896C179.743 205.896 178.927 206.744 178.911 207.864V213ZM195.661 213.24C193.069 213.24 191.293 211.384 191.293 208.792C191.293 205.992 193.133 204.264 195.501 204.264C197.901 204.264 199.501 205.944 199.549 208.696V209.144H193.181C193.309 210.632 194.237 211.64 195.677 211.64C196.653 211.64 197.389 211.16 197.677 210.312H199.517C199.085 212.136 197.661 213.24 195.661 213.24ZM193.261 207.816H197.597C197.357 206.6 196.605 205.864 195.501 205.864C194.381 205.864 193.549 206.6 193.261 207.816ZM202.911 213H201.023V204.52H202.543L202.703 205.768C203.231 204.888 204.303 204.264 205.567 204.264C207.375 204.264 208.559 205.48 208.559 207.384V213H206.671V207.48C206.671 206.536 206.047 205.912 204.991 205.912C203.759 205.912 202.927 206.76 202.911 207.864V213ZM214.996 213H213.908C212.068 213 211.076 212.088 211.076 210.408V206.12H209.588V204.52H211.076V201.624H212.964V204.52H215.156V206.12H212.964V210.28C212.964 211 213.332 211.4 214.036 211.4H214.996V213ZM224.887 213H223.799C221.959 213 220.967 212.088 220.967 210.408V206.12H219.479V204.52H220.967V201.624H222.855V204.52H225.047V206.12H222.855V210.28C222.855 211 223.223 211.4 223.927 211.4H224.887V213ZM230.161 213.24C227.409 213.24 225.809 211.304 225.809 208.68C225.809 205.912 227.681 204.264 230.161 204.264C232.897 204.264 234.497 206.184 234.497 208.68C234.497 211.544 232.689 213.24 230.161 213.24ZM230.161 211.624C231.681 211.624 232.577 210.376 232.577 208.68C232.577 207 231.633 205.88 230.161 205.88C228.689 205.88 227.729 207 227.729 208.68C227.729 210.536 228.769 211.624 230.161 211.624ZM241.38 216.2H239.476V204.52H240.996L241.188 205.912C241.748 204.92 242.852 204.264 244.196 204.264C246.436 204.264 248.02 206.088 248.02 208.712C248.02 211.384 246.436 213.24 244.18 213.24C242.964 213.24 241.956 212.696 241.38 211.816V216.2ZM243.764 211.64C245.14 211.64 246.084 210.44 246.084 208.712C246.084 207.032 245.14 205.864 243.748 205.864C242.356 205.864 241.38 207.016 241.38 208.664C241.38 210.408 242.356 211.64 243.764 211.64ZM251.379 213H249.491V204.52H251.011L251.235 206.184C251.779 205.032 252.771 204.424 254.179 204.424H254.499V206.264H254.179C252.419 206.264 251.379 207.208 251.379 208.808V213ZM259.411 213.24C256.659 213.24 255.059 211.304 255.059 208.68C255.059 205.912 256.931 204.264 259.411 204.264C262.147 204.264 263.747 206.184 263.747 208.68C263.747 211.544 261.939 213.24 259.411 213.24ZM259.411 211.624C260.931 211.624 261.827 210.376 261.827 208.68C261.827 207 260.883 205.88 259.411 205.88C257.939 205.88 256.979 207 256.979 208.68C256.979 210.536 258.019 211.624 259.411 211.624ZM269.84 213H268.752C266.912 213 265.92 212.088 265.92 210.408V206.12H264.432V204.52H265.92V201.624H267.808V204.52H270V206.12H267.808V210.28C267.808 211 268.176 211.4 268.88 211.4H269.84V213ZM275.13 213.24C272.538 213.24 270.762 211.384 270.762 208.792C270.762 205.992 272.602 204.264 274.97 204.264C277.37 204.264 278.97 205.944 279.018 208.696V209.144H272.65C272.778 210.632 273.706 211.64 275.146 211.64C276.122 211.64 276.858 211.16 277.146 210.312H278.986C278.554 212.136 277.13 213.24 275.13 213.24ZM272.73 207.816H277.066C276.826 206.6 276.074 205.864 274.97 205.864C273.85 205.864 273.018 206.6 272.73 207.816ZM284.427 213.24C281.659 213.24 280.043 211.256 280.043 208.696C280.043 205.912 281.915 204.264 284.379 204.264C286.699 204.264 288.267 205.688 288.427 207.8H286.571C286.395 206.632 285.563 205.88 284.363 205.88C282.923 205.88 281.963 206.968 281.963 208.696C281.963 210.552 283.019 211.624 284.427 211.624C285.579 211.624 286.379 210.888 286.571 209.672H288.427C288.203 211.864 286.683 213.24 284.427 213.24ZM294.512 213H293.424C291.584 213 290.592 212.088 290.592 210.408V206.12H289.104V204.52H290.592V201.624H292.48V204.52H294.672V206.12H292.48V210.28C292.48 211 292.848 211.4 293.552 211.4H294.512V213ZM300.914 216.2H299.378V214.6H300.914C301.618 214.6 302.002 214.344 302.162 213.896L302.498 213H302.146L298.786 204.52H300.818L303.25 210.952L305.634 204.52H307.602L303.906 214.456C303.474 215.592 302.578 216.2 300.914 216.2ZM312.302 213.24C309.549 213.24 307.95 211.304 307.95 208.68C307.95 205.912 309.822 204.264 312.302 204.264C315.038 204.264 316.638 206.184 316.638 208.68C316.638 211.544 314.83 213.24 312.302 213.24ZM312.302 211.624C313.822 211.624 314.718 210.376 314.718 208.68C314.718 207 313.774 205.88 312.302 205.88C310.83 205.88 309.87 207 309.87 208.68C309.87 210.536 310.91 211.624 312.302 211.624ZM321.156 213.24C319.14 213.24 317.972 211.976 317.972 210.136V204.52H319.86V210.056C319.86 211.016 320.532 211.576 321.54 211.576C322.836 211.576 323.604 210.728 323.62 209.64V204.52H325.508V213H323.988L323.844 211.768C323.348 212.68 322.34 213.24 321.156 213.24ZM329.317 213H327.429V204.52H328.949L329.173 206.184C329.717 205.032 330.709 204.424 332.117 204.424H332.437V206.264H332.117C330.357 206.264 329.317 207.208 329.317 208.808V213ZM339.051 213H337.163V204.52H338.683L338.827 205.704C339.355 204.872 340.395 204.264 341.659 204.264C342.875 204.264 343.803 204.872 344.251 205.848C344.731 204.952 345.819 204.264 347.163 204.264C348.939 204.264 350.075 205.528 350.075 207.352V213H348.171V207.448C348.171 206.504 347.595 205.896 346.683 205.896C345.387 205.896 344.571 206.744 344.555 207.864V213H342.667V207.448C342.667 206.504 342.091 205.896 341.179 205.896C339.883 205.896 339.067 206.744 339.051 207.864V213ZM354.682 213.176C352.73 213.176 351.45 212.232 351.466 210.648C351.482 208.664 353.45 208.248 355.098 208.056C356.378 207.912 357.322 207.864 357.338 207.192C357.322 206.36 356.682 205.816 355.594 205.816C354.474 205.816 353.674 206.424 353.562 207.304H351.658C351.834 205.512 353.434 204.264 355.626 204.264C357.914 204.264 359.178 205.512 359.178 207.32V211.16C359.178 211.4 359.306 211.528 359.594 211.528H360.058V213H359.162C358.298 213 357.77 212.648 357.626 212.008C357.594 211.928 357.562 211.816 357.546 211.72C357.05 212.632 356.122 213.176 354.682 213.176ZM355.066 211.688C356.362 211.688 357.338 210.952 357.338 209.816V208.632C357.018 209.128 356.202 209.24 355.306 209.352C354.25 209.48 353.37 209.624 353.37 210.52C353.37 211.256 353.962 211.688 355.066 211.688ZM363.192 213H361.304V204.52H362.824L363.048 206.184C363.592 205.032 364.584 204.424 365.992 204.424H366.312V206.264H365.992C364.232 206.264 363.192 207.208 363.192 208.808V213ZM371.191 216.456C368.823 216.456 367.191 215.304 367.191 213.48H369.079C369.079 214.28 369.927 214.92 371.191 214.92C372.695 214.92 373.479 214.024 373.479 212.744V211.544C372.935 212.36 371.991 212.872 370.775 212.872C368.503 212.872 366.871 211.112 366.871 208.584C366.871 206.04 368.503 204.264 370.759 204.264C372.087 204.264 373.159 204.888 373.687 205.832L373.847 204.52H375.351V212.744C375.351 214.984 373.767 216.456 371.191 216.456ZM371.143 211.288C372.519 211.288 373.479 210.168 373.479 208.568C373.479 206.968 372.519 205.864 371.143 205.864C369.767 205.864 368.823 206.968 368.823 208.584C368.823 210.184 369.767 211.288 371.143 211.288ZM378.201 203.384C377.513 203.384 376.985 202.84 376.985 202.152C376.985 201.464 377.513 200.936 378.201 200.936C378.905 200.936 379.417 201.464 379.417 202.152C379.417 202.84 378.905 203.384 378.201 203.384ZM379.145 213H377.257V204.52H379.145V213ZM382.957 213H381.069V204.52H382.589L382.749 205.768C383.277 204.888 384.349 204.264 385.613 204.264C387.421 204.264 388.605 205.48 388.605 207.384V213H386.717V207.48C386.717 206.536 386.093 205.912 385.037 205.912C383.805 205.912 382.973 206.76 382.957 207.864V213ZM393.789 213.24C391.469 213.24 390.093 212.152 389.981 210.296H391.805C391.869 211.208 392.653 211.688 393.693 211.688C394.653 211.688 395.165 211.32 395.165 210.664C395.165 210.008 394.621 209.88 393.885 209.64L392.765 209.272C391.357 208.808 390.141 208.328 390.141 206.76C390.141 205.256 391.293 204.264 393.325 204.264C395.293 204.264 396.637 205.304 396.861 207.224H395.069C394.973 206.264 394.285 205.816 393.309 205.816C392.477 205.816 391.997 206.168 391.997 206.744C391.997 207.4 392.733 207.576 393.341 207.784L394.365 208.12C396.045 208.68 397.053 209.192 397.053 210.712C397.053 212.28 395.869 213.24 393.789 213.24Z" fill="#0F3239"/>
<path d="M33.744 277.24C30.8 277.24 28.832 275.768 28.688 273.544H30.656C30.832 274.76 31.952 275.528 33.744 275.528C35.2 275.528 35.968 274.968 35.968 274.024C35.968 273.144 35.28 272.792 34.192 272.456L32.368 271.912C31.056 271.512 29.008 270.936 29.008 268.744C29.008 266.904 30.528 265.56 33.008 265.56C35.712 265.56 37.44 267.016 37.584 269.384H35.632C35.552 268.12 34.624 267.272 32.944 267.272C31.712 267.272 30.912 267.784 30.912 268.648C30.912 269.624 31.888 269.864 32.976 270.216L34.672 270.744C36.256 271.24 37.92 271.816 37.92 273.928C37.92 275.96 36.304 277.24 33.744 277.24ZM42.4688 277.24C40.4528 277.24 39.2848 275.976 39.2848 274.136V268.52H41.1728V274.056C41.1728 275.016 41.8448 275.576 42.8528 275.576C44.1488 275.576 44.9168 274.728 44.9328 273.64V268.52H46.8208V277H45.3008L45.1568 275.768C44.6608 276.68 43.6528 277.24 42.4688 277.24ZM52.6773 277.24C49.9093 277.24 48.2933 275.256 48.2933 272.696C48.2933 269.912 50.1653 268.264 52.6293 268.264C54.9493 268.264 56.5173 269.688 56.6773 271.8H54.8213C54.6453 270.632 53.8133 269.88 52.6133 269.88C51.1733 269.88 50.2133 270.968 50.2133 272.696C50.2133 274.552 51.2693 275.624 52.6773 275.624C53.8293 275.624 54.6293 274.888 54.8213 273.672H56.6773C56.4533 275.864 54.9333 277.24 52.6773 277.24ZM62.0835 277.24C59.3155 277.24 57.6995 275.256 57.6995 272.696C57.6995 269.912 59.5715 268.264 62.0355 268.264C64.3555 268.264 65.9235 269.688 66.0835 271.8H64.2275C64.0515 270.632 63.2195 269.88 62.0195 269.88C60.5795 269.88 59.6195 270.968 59.6195 272.696C59.6195 274.552 60.6755 275.624 62.0835 275.624C63.2355 275.624 64.0355 274.888 64.2275 273.672H66.0835C65.8595 275.864 64.3395 277.24 62.0835 277.24ZM71.4738 277.24C68.8818 277.24 67.1058 275.384 67.1058 272.792C67.1058 269.992 68.9457 268.264 71.3138 268.264C73.7138 268.264 75.3138 269.944 75.3618 272.696V273.144H68.9938C69.1218 274.632 70.0498 275.64 71.4898 275.64C72.4658 275.64 73.2018 275.16 73.4898 274.312H75.3298C74.8978 276.136 73.4738 277.24 71.4738 277.24ZM69.0738 271.816H73.4098C73.1698 270.6 72.4178 269.864 71.3138 269.864C70.1938 269.864 69.3618 270.6 69.0738 271.816ZM80.211 277.24C77.891 277.24 76.515 276.152 76.403 274.296H78.227C78.291 275.208 79.075 275.688 80.115 275.688C81.075 275.688 81.587 275.32 81.587 274.664C81.587 274.008 81.043 273.88 80.307 273.64L79.187 273.272C77.779 272.808 76.563 272.328 76.563 270.76C76.563 269.256 77.715 268.264 79.747 268.264C81.715 268.264 83.059 269.304 83.283 271.224H81.491C81.395 270.264 80.707 269.816 79.731 269.816C78.899 269.816 78.419 270.168 78.419 270.744C78.419 271.4 79.155 271.576 79.763 271.784L80.787 272.12C82.467 272.68 83.475 273.192 83.475 274.712C83.475 276.28 82.291 277.24 80.211 277.24ZM88.211 277.24C85.891 277.24 84.515 276.152 84.403 274.296H86.227C86.291 275.208 87.075 275.688 88.115 275.688C89.075 275.688 89.587 275.32 89.587 274.664C89.587 274.008 89.043 273.88 88.307 273.64L87.187 273.272C85.779 272.808 84.563 272.328 84.563 270.76C84.563 269.256 85.715 268.264 87.747 268.264C89.715 268.264 91.059 269.304 91.283 271.224H89.491C89.395 270.264 88.707 269.816 87.731 269.816C86.899 269.816 86.419 270.168 86.419 270.744C86.419 271.4 87.155 271.576 87.763 271.784L88.787 272.12C90.467 272.68 91.475 273.192 91.475 274.712C91.475 276.28 90.291 277.24 88.211 277.24ZM99.1194 277.176C97.1674 277.176 95.8874 276.232 95.9034 274.648C95.9194 272.664 97.8874 272.248 99.5354 272.056C100.815 271.912 101.759 271.864 101.775 271.192C101.759 270.36 101.119 269.816 100.031 269.816C98.9114 269.816 98.1114 270.424 97.9994 271.304H96.0954C96.2714 269.512 97.8714 268.264 100.063 268.264C102.351 268.264 103.615 269.512 103.615 271.32V275.16C103.615 275.4 103.743 275.528 104.031 275.528H104.495V277H103.599C102.735 277 102.207 276.648 102.063 276.008C102.031 275.928 101.999 275.816 101.983 275.72C101.487 276.632 100.559 277.176 99.1194 277.176ZM99.5034 275.688C100.799 275.688 101.775 274.952 101.775 273.816V272.632C101.455 273.128 100.639 273.24 99.7434 273.352C98.6874 273.48 97.8074 273.624 97.8074 274.52C97.8074 275.256 98.3994 275.688 99.5034 275.688ZM107.661 277H105.773V265H107.661V277ZM110.56 267.384C109.872 267.384 109.344 266.84 109.344 266.152C109.344 265.464 109.872 264.936 110.56 264.936C111.264 264.936 111.776 265.464 111.776 266.152C111.776 266.84 111.264 267.384 110.56 267.384ZM111.504 277H109.616V268.52H111.504V277ZM117.301 280.456C114.933 280.456 113.301 279.304 113.301 277.48H115.189C115.189 278.28 116.037 278.92 117.301 278.92C118.805 278.92 119.589 278.024 119.589 276.744V275.544C119.045 276.36 118.101 276.872 116.885 276.872C114.613 276.872 112.981 275.112 112.981 272.584C112.981 270.04 114.613 268.264 116.869 268.264C118.197 268.264 119.269 268.888 119.797 269.832L119.957 268.52H121.461V276.744C121.461 278.984 119.877 280.456 117.301 280.456ZM117.253 275.288C118.629 275.288 119.589 274.168 119.589 272.568C119.589 270.968 118.629 269.864 117.253 269.864C115.877 269.864 114.933 270.968 114.933 272.584C114.933 274.184 115.877 275.288 117.253 275.288ZM125.254 277H123.366V268.52H124.886L125.046 269.768C125.574 268.888 126.646 268.264 127.91 268.264C129.718 268.264 130.902 269.48 130.902 271.384V277H129.014V271.48C129.014 270.536 128.39 269.912 127.334 269.912C126.102 269.912 125.27 270.76 125.254 271.864V277ZM136.63 277.24C134.038 277.24 132.262 275.384 132.262 272.792C132.262 269.992 134.102 268.264 136.47 268.264C138.87 268.264 140.47 269.944 140.518 272.696V273.144H134.15C134.278 274.632 135.206 275.64 136.646 275.64C137.622 275.64 138.358 275.16 138.646 274.312H140.486C140.054 276.136 138.63 277.24 136.63 277.24ZM134.23 271.816H138.566C138.326 270.6 137.574 269.864 136.47 269.864C135.35 269.864 134.518 270.6 134.23 271.816ZM145.479 277.24C143.191 277.24 141.543 275.384 141.543 272.712C141.543 270.088 143.159 268.264 145.415 268.264C146.615 268.264 147.607 268.76 148.199 269.56V265H150.087V277H148.567L148.391 275.496C147.911 276.568 146.855 277.24 145.479 277.24ZM145.831 275.64C147.223 275.64 148.199 274.424 148.199 272.696C148.199 271.016 147.239 269.848 145.863 269.848C144.455 269.848 143.479 271.032 143.479 272.728C143.479 274.44 144.439 275.64 145.831 275.64ZM159.266 277H157.283L154.771 268.52H156.707L158.419 274.664L160.099 268.52H161.667L163.363 274.6L165.043 268.52H166.979L164.467 277H162.515L160.883 271.208L159.266 277ZM169.092 267.384C168.404 267.384 167.876 266.84 167.876 266.152C167.876 265.464 168.404 264.936 169.092 264.936C169.796 264.936 170.308 265.464 170.308 266.152C170.308 266.84 169.796 267.384 169.092 267.384ZM170.036 277H168.148V268.52H170.036V277ZM176.824 277H175.736C173.896 277 172.904 276.088 172.904 274.408V270.12H171.416V268.52H172.904V265.624H174.792V268.52H176.984V270.12H174.792V274.28C174.792 275 175.16 275.4 175.864 275.4H176.824V277ZM180.286 277H178.398V265H180.286V269.432C180.862 268.728 181.838 268.264 182.942 268.264C184.75 268.264 185.934 269.48 185.934 271.384V277H184.046V271.48C184.046 270.536 183.422 269.912 182.414 269.912C181.134 269.912 180.302 270.76 180.286 271.864V277ZM192.602 280.2H191.066V278.6H192.602C193.306 278.6 193.69 278.344 193.85 277.896L194.186 277H193.834L190.474 268.52H192.506L194.938 274.952L197.322 268.52H199.29L195.594 278.456C195.162 279.592 194.266 280.2 192.602 280.2ZM203.989 277.24C201.237 277.24 199.637 275.304 199.637 272.68C199.637 269.912 201.509 268.264 203.989 268.264C206.725 268.264 208.325 270.184 208.325 272.68C208.325 275.544 206.517 277.24 203.989 277.24ZM203.989 275.624C205.509 275.624 206.405 274.376 206.405 272.68C206.405 271 205.461 269.88 203.989 269.88C202.517 269.88 201.557 271 201.557 272.68C201.557 274.536 202.597 275.624 203.989 275.624ZM212.844 277.24C210.828 277.24 209.66 275.976 209.66 274.136V268.52H211.548V274.056C211.548 275.016 212.22 275.576 213.228 275.576C214.524 275.576 215.292 274.728 215.308 273.64V268.52H217.196V277H215.676L215.532 275.768C215.036 276.68 214.028 277.24 212.844 277.24ZM221.004 277H219.116V268.52H220.636L220.86 270.184C221.404 269.032 222.396 268.424 223.804 268.424H224.124V270.264H223.804C222.044 270.264 221.004 271.208 221.004 272.808V277ZM233.571 277.24C232.227 277.24 231.107 276.568 230.579 275.496L230.403 277H228.883V265H230.771V269.624C231.379 268.792 232.387 268.264 233.587 268.264C235.827 268.264 237.411 270.088 237.411 272.712C237.411 275.384 235.827 277.24 233.571 277.24ZM233.155 275.64C234.531 275.64 235.475 274.44 235.475 272.712C235.475 271.032 234.531 269.864 233.155 269.864C231.763 269.864 230.771 271.016 230.771 272.664C230.771 274.408 231.763 275.64 233.155 275.64ZM241.922 277.24C239.906 277.24 238.738 275.976 238.738 274.136V268.52H240.626V274.056C240.626 275.016 241.298 275.576 242.306 275.576C243.602 275.576 244.37 274.728 244.386 273.64V268.52H246.274V277H244.754L244.61 275.768C244.114 276.68 243.106 277.24 241.922 277.24ZM251.57 277.24C249.25 277.24 247.874 276.152 247.762 274.296H249.586C249.65 275.208 250.434 275.688 251.474 275.688C252.434 275.688 252.946 275.32 252.946 274.664C252.946 274.008 252.402 273.88 251.666 273.64L250.546 273.272C249.138 272.808 247.922 272.328 247.922 270.76C247.922 269.256 249.074 268.264 251.106 268.264C253.074 268.264 254.418 269.304 254.642 271.224H252.85C252.754 270.264 252.066 269.816 251.09 269.816C250.258 269.816 249.778 270.168 249.778 270.744C249.778 271.4 250.514 271.576 251.122 271.784L252.146 272.12C253.826 272.68 254.834 273.192 254.834 274.712C254.834 276.28 253.65 277.24 251.57 277.24ZM257.138 267.384C256.45 267.384 255.922 266.84 255.922 266.152C255.922 265.464 256.45 264.936 257.138 264.936C257.842 264.936 258.354 265.464 258.354 266.152C258.354 266.84 257.842 267.384 257.138 267.384ZM258.082 277H256.194V268.52H258.082V277ZM261.895 277H260.007V268.52H261.527L261.687 269.768C262.215 268.888 263.287 268.264 264.551 268.264C266.359 268.264 267.543 269.48 267.543 271.384V277H265.655V271.48C265.655 270.536 265.031 269.912 263.975 269.912C262.743 269.912 261.911 270.76 261.895 271.864V277ZM273.271 277.24C270.679 277.24 268.903 275.384 268.903 272.792C268.903 269.992 270.743 268.264 273.111 268.264C275.511 268.264 277.111 269.944 277.159 272.696V273.144H270.791C270.919 274.632 271.847 275.64 273.287 275.64C274.263 275.64 274.999 275.16 275.287 274.312H277.127C276.695 276.136 275.271 277.24 273.271 277.24ZM270.871 271.816H275.207C274.967 270.6 274.215 269.864 273.111 269.864C271.991 269.864 271.159 270.6 270.871 271.816ZM282.008 277.24C279.688 277.24 278.312 276.152 278.2 274.296H280.024C280.088 275.208 280.872 275.688 281.912 275.688C282.872 275.688 283.384 275.32 283.384 274.664C283.384 274.008 282.84 273.88 282.104 273.64L280.984 273.272C279.576 272.808 278.36 272.328 278.36 270.76C278.36 269.256 279.512 268.264 281.544 268.264C283.512 268.264 284.856 269.304 285.08 271.224H283.288C283.192 270.264 282.504 269.816 281.528 269.816C280.696 269.816 280.216 270.168 280.216 270.744C280.216 271.4 280.952 271.576 281.56 271.784L282.584 272.12C284.264 272.68 285.272 273.192 285.272 274.712C285.272 276.28 284.088 277.24 282.008 277.24ZM290.008 277.24C287.688 277.24 286.312 276.152 286.2 274.296H288.024C288.088 275.208 288.872 275.688 289.912 275.688C290.872 275.688 291.384 275.32 291.384 274.664C291.384 274.008 290.84 273.88 290.104 273.64L288.984 273.272C287.576 272.808 286.36 272.328 286.36 270.76C286.36 269.256 287.512 268.264 289.544 268.264C291.512 268.264 292.856 269.304 293.08 271.224H291.288C291.192 270.264 290.504 269.816 289.528 269.816C288.696 269.816 288.216 270.168 288.216 270.744C288.216 271.4 288.952 271.576 289.56 271.784L290.584 272.12C292.264 272.68 293.272 273.192 293.272 274.712C293.272 276.28 292.088 277.24 290.008 277.24ZM300.036 280.2H298.132V268.52H299.652L299.844 269.912C300.404 268.92 301.508 268.264 302.852 268.264C305.092 268.264 306.676 270.088 306.676 272.712C306.676 275.384 305.092 277.24 302.836 277.24C301.62 277.24 300.612 276.696 300.036 275.816V280.2ZM302.42 275.64C303.796 275.64 304.74 274.44 304.74 272.712C304.74 271.032 303.796 269.864 302.404 269.864C301.012 269.864 300.036 271.016 300.036 272.664C300.036 274.408 301.012 275.64 302.42 275.64ZM312.068 277.24C309.476 277.24 307.7 275.384 307.7 272.792C307.7 269.992 309.539 268.264 311.908 268.264C314.308 268.264 315.908 269.944 315.956 272.696V273.144H309.588C309.716 274.632 310.644 275.64 312.084 275.64C313.06 275.64 313.796 275.16 314.084 274.312H315.924C315.492 276.136 314.068 277.24 312.068 277.24ZM309.668 271.816H314.004C313.764 270.6 313.012 269.864 311.908 269.864C310.788 269.864 309.956 270.6 309.668 271.816ZM319.317 277H317.429V268.52H318.949L319.173 270.184C319.717 269.032 320.709 268.424 322.117 268.424H322.437V270.264H322.117C320.357 270.264 319.317 271.208 319.317 272.808V277ZM326.511 277H324.623V270.12H323.135V268.52H324.623V267.464C324.623 265.864 325.567 265 327.327 265H329.167V266.6H327.455C326.847 266.6 326.511 266.952 326.511 267.592V268.52H328.975V270.12H326.511V277ZM333.911 277.24C331.159 277.24 329.559 275.304 329.559 272.68C329.559 269.912 331.431 268.264 333.911 268.264C336.647 268.264 338.247 270.184 338.247 272.68C338.247 275.544 336.439 277.24 333.911 277.24ZM333.911 275.624C335.431 275.624 336.327 274.376 336.327 272.68C336.327 271 335.383 269.88 333.911 269.88C332.439 269.88 331.479 271 331.479 272.68C331.479 274.536 332.519 275.624 333.911 275.624ZM341.614 277H339.726V268.52H341.246L341.47 270.184C342.014 269.032 343.006 268.424 344.414 268.424H344.734V270.264H344.414C342.654 270.264 341.614 271.208 341.614 272.808V277ZM347.864 277H345.976V268.52H347.496L347.64 269.704C348.168 268.872 349.208 268.264 350.472 268.264C351.688 268.264 352.616 268.872 353.064 269.848C353.544 268.952 354.632 268.264 355.976 268.264C357.752 268.264 358.888 269.528 358.888 271.352V277H356.984V271.448C356.984 270.504 356.408 269.896 355.496 269.896C354.2 269.896 353.384 270.744 353.368 271.864V277H351.48V271.448C351.48 270.504 350.904 269.896 349.992 269.896C348.696 269.896 347.88 270.744 347.864 271.864V277ZM363.494 277.176C361.542 277.176 360.262 276.232 360.278 274.648C360.294 272.664 362.262 272.248 363.91 272.056C365.19 271.912 366.134 271.864 366.15 271.192C366.134 270.36 365.494 269.816 364.406 269.816C363.286 269.816 362.486 270.424 362.374 271.304H360.47C360.646 269.512 362.246 268.264 364.438 268.264C366.726 268.264 367.99 269.512 367.99 271.32V275.16C367.99 275.4 368.118 275.528 368.406 275.528H368.87V277H367.974C367.11 277 366.582 276.648 366.438 276.008C366.406 275.928 366.374 275.816 366.358 275.72C365.862 276.632 364.934 277.176 363.494 277.176ZM363.878 275.688C365.174 275.688 366.15 274.952 366.15 273.816V272.632C365.83 273.128 365.014 273.24 364.118 273.352C363.062 273.48 362.182 273.624 362.182 274.52C362.182 275.256 362.774 275.688 363.878 275.688ZM372.004 277H370.116V268.52H371.636L371.796 269.768C372.324 268.888 373.396 268.264 374.66 268.264C376.468 268.264 377.652 269.48 377.652 271.384V277H375.764V271.48C375.764 270.536 375.14 269.912 374.084 269.912C372.852 269.912 372.02 270.76 372.004 271.864V277ZM383.396 277.24C380.628 277.24 379.012 275.256 379.012 272.696C379.012 269.912 380.884 268.264 383.348 268.264C385.668 268.264 387.236 269.688 387.396 271.8H385.54C385.364 270.632 384.532 269.88 383.332 269.88C381.892 269.88 380.932 270.968 380.932 272.696C380.932 274.552 381.988 275.624 383.396 275.624C384.548 275.624 385.348 274.888 385.54 273.672H387.396C387.172 275.864 385.652 277.24 383.396 277.24ZM392.786 277.24C390.194 277.24 388.418 275.384 388.418 272.792C388.418 269.992 390.258 268.264 392.626 268.264C395.026 268.264 396.626 269.944 396.674 272.696V273.144H390.306C390.434 274.632 391.362 275.64 392.802 275.64C393.778 275.64 394.514 275.16 394.802 274.312H396.642C396.21 276.136 394.786 277.24 392.786 277.24ZM390.386 271.816H394.722C394.482 270.6 393.73 269.864 392.626 269.864C391.506 269.864 390.674 270.6 390.386 271.816Z" fill="#0F3239"/>
<path d="M594.605 13.21C591.595 13.21 589.677 11.138 589.677 8.072C589.677 5.104 591.553 2.99 594.605 2.99C597.153 2.99 598.903 4.474 599.323 6.98H597.601C597.293 5.44 596.159 4.502 594.605 4.502C592.631 4.502 591.399 5.888 591.399 8.072C591.399 10.312 592.631 11.684 594.605 11.684C596.187 11.684 597.293 10.774 597.601 9.22H599.323C598.875 11.768 597.167 13.21 594.605 13.21ZM603.726 13H602.046V3.2H606.834C608.696 3.2 609.984 4.334 609.984 5.972C609.984 7.176 609.13 8.17 607.828 8.506C608.472 8.632 608.934 9.024 609.172 9.626L610.432 13H608.64L607.506 9.906C607.366 9.514 607.044 9.304 606.596 9.304H603.726V13ZM603.726 4.712V7.82H606.75C607.786 7.82 608.318 7.078 608.318 6.224C608.318 5.328 607.702 4.712 606.75 4.712H603.726ZM619.886 13H612.9V3.2H619.76V4.712H614.566V7.232H619.27V8.702H614.566V11.488H619.886V13ZM626.106 13H622.578V3.2H626.106C629.018 3.2 631.048 5.188 631.048 8.044C631.048 10.97 629.018 13 626.106 13ZM624.258 4.712V11.488H626.218C628.038 11.488 629.312 10.074 629.312 8.044C629.312 6.126 628.038 4.712 626.218 4.712H624.258ZM635.441 13H633.761V3.2H635.441V13ZM642.926 13H641.246V4.712H637.97V3.2H646.188V4.712H642.926V13ZM657.378 13.21C654.368 13.21 652.45 11.138 652.45 8.072C652.45 5.104 654.326 2.99 657.378 2.99C659.926 2.99 661.676 4.474 662.096 6.98H660.374C660.066 5.44 658.932 4.502 657.378 4.502C655.404 4.502 654.172 5.888 654.172 8.072C654.172 10.312 655.404 11.684 657.378 11.684C658.96 11.684 660.066 10.774 660.374 9.22H662.096C661.648 11.768 659.94 13.21 657.378 13.21ZM665.252 13H663.516L667.52 3.2H669.2L673.218 13H671.482L670.488 10.578H666.246L665.252 13ZM668.374 5.37L666.848 9.094H669.886L668.374 5.37ZM677.285 13H675.605V3.2H680.393C682.255 3.2 683.543 4.334 683.543 5.972C683.543 7.176 682.689 8.17 681.387 8.506C682.031 8.632 682.493 9.024 682.731 9.626L683.991 13H682.199L681.065 9.906C680.925 9.514 680.603 9.304 680.155 9.304H677.285V13ZM677.285 4.712V7.82H680.309C681.345 7.82 681.877 7.078 681.877 6.224C681.877 5.328 681.261 4.712 680.309 4.712H677.285ZM689.988 13H686.46V3.2H689.988C692.9 3.2 694.93 5.188 694.93 8.044C694.93 10.97 692.9 13 689.988 13ZM688.14 4.712V11.488H690.1C691.92 11.488 693.194 10.074 693.194 8.044C693.194 6.126 691.92 4.712 690.1 4.712H688.14Z" fill="#0F3239"/>
<path fill-rule="evenodd" clip-rule="evenodd" d="M655.455 78.3719L638.918 95.9158L629.545 85.9719L632.455 83.2282L638.918 90.0842L652.545 75.6282L655.455 78.3719Z" fill="#645CF7"/>
<path d="M632.828 135L630 137.828L639.193 147.021L630 156.213L632.829 159.042L642.021 149.849L651.213 159.042L654.042 156.213L644.849 147.021L654.042 137.828L651.213 135L642.021 144.193L632.828 135Z" fill="#0F3239" fill-opacity="0.2"/>
<path d="M632.828 198L630 200.828L639.193 210.021L630 219.213L632.829 222.042L642.021 212.849L651.213 222.042L654.042 219.213L644.849 210.021L654.042 200.828L651.213 198L642.021 207.193L632.828 198Z" fill="#0F3239" fill-opacity="0.2"/>
<path d="M632.828 261L630 263.828L639.193 273.021L630 282.213L632.829 285.042L642.021 275.849L651.213 285.042L654.042 282.213L644.849 273.021L654.042 263.828L651.213 261L642.021 270.193L632.828 261Z" fill="#0F3239" fill-opacity="0.2"/>
<path d="M734.837 13H730.105V3.2H734.753C736.531 3.2 737.777 4.208 737.777 5.678C737.777 6.798 736.965 7.666 735.761 7.96C737.119 8.17 737.987 9.094 737.987 10.34C737.987 11.908 736.699 13 734.837 13ZM731.771 4.698V7.288H734.697C735.537 7.288 736.111 6.728 736.111 5.944C736.111 5.216 735.579 4.698 734.823 4.698H731.771ZM731.771 8.744V11.488H734.921C735.761 11.488 736.279 10.886 736.279 10.102C736.279 9.304 735.663 8.744 734.767 8.744H731.771ZM741.652 13H739.916L743.92 3.2H745.6L749.618 13H747.882L746.888 10.578H742.646L741.652 13ZM744.774 5.37L743.248 9.094H746.286L744.774 5.37ZM753.685 13H752.005V3.2H753.825L758.683 10.578V3.2H760.363V13H758.543L753.685 5.622V13ZM765.209 13H763.529V3.2H765.209V8.002L769.661 3.2H771.789L767.953 7.218L772.069 13H770.011L766.791 8.436L765.209 10.088V13ZM785.244 13H778.566V3.2H780.246V11.488H785.244V13ZM791.712 13.21C788.814 13.21 786.826 11.194 786.826 8.072C786.826 5.104 788.702 2.99 791.712 2.99C794.624 2.99 796.626 4.992 796.626 8.072C796.626 11.068 794.736 13.21 791.712 13.21ZM791.712 11.684C793.672 11.684 794.918 10.284 794.918 8.072C794.918 5.888 793.672 4.502 791.712 4.502C789.766 4.502 788.534 5.888 788.534 8.072C788.534 10.284 789.766 11.684 791.712 11.684ZM799.764 13H798.028L802.032 3.2H803.712L807.73 13H805.994L805 10.578H800.758L799.764 13ZM802.886 5.37L801.36 9.094H804.398L802.886 5.37ZM811.798 13H810.118V3.2H811.938L816.796 10.578V3.2H818.476V13H816.656L811.798 5.622V13Z" fill="#0F3239"/>
<path d="M764.828 72L762 74.8284L771.193 84.0209L762 93.2133L764.829 96.0417L774.021 86.8494L783.213 96.0416L786.042 93.2132L776.849 84.0209L786.042 74.8285L783.213 72.0001L774.021 81.1925L764.828 72Z" fill="#0F3239" fill-opacity="0.2"/>
<path d="M764.828 135L762 137.828L771.193 147.021L762 156.213L764.829 159.042L774.021 149.849L783.213 159.042L786.042 156.213L776.849 147.021L786.042 137.828L783.213 135L774.021 144.193L764.828 135Z" fill="#0F3239" fill-opacity="0.2"/>
<path d="M764.828 198L762 200.828L771.193 210.021L762 219.213L764.829 222.042L774.021 212.849L783.213 222.042L786.042 219.213L776.849 210.021L786.042 200.828L783.213 198L774.021 207.193L764.828 198Z" fill="#0F3239" fill-opacity="0.2"/>
<path d="M764.828 261L762 263.828L771.193 273.021L762 282.213L764.829 285.042L774.021 275.849L783.213 285.042L786.042 282.213L776.849 273.021L786.042 263.828L783.213 261L774.021 270.193L764.828 261Z" fill="#0F3239" fill-opacity="0.2"/>
<path d="M856.821 13H850.143V3.2H851.823V11.488H856.821V13ZM866.412 13H859.426V3.2H866.286V4.712H861.092V7.232H865.796V8.702H861.092V11.488H866.412V13ZM870.784 13H869.104V3.2H870.924L875.782 10.578V3.2H877.462V13H875.642L870.784 5.622V13ZM884.156 13H880.628V3.2H884.156C887.068 3.2 889.098 5.188 889.098 8.044C889.098 10.97 887.068 13 884.156 13ZM882.308 4.712V11.488H884.268C886.088 11.488 887.362 10.074 887.362 8.044C887.362 6.126 886.088 4.712 884.268 4.712H882.308ZM893.491 13H891.811V3.2H893.491V13ZM898.316 13H896.636V3.2H898.456L903.314 10.578V3.2H904.994V13H903.174L898.316 5.622V13ZM912.388 13.21C909.644 13.21 907.712 11.194 907.712 8.072C907.712 5.104 909.588 2.99 912.626 2.99C915.174 2.99 916.924 4.502 917.344 6.98H915.622C915.314 5.44 914.18 4.502 912.626 4.502C910.666 4.502 909.434 5.874 909.434 8.072C909.434 10.298 910.68 11.684 912.556 11.684C914.082 11.684 915.076 10.69 915.076 9.29H912.122V7.876H915.468C916.728 7.876 917.414 8.506 917.414 9.696V13H915.93V10.004H915.902C915.706 11.964 914.418 13.21 912.388 13.21ZM926.162 13H924.482V3.2H931.426V4.712H926.162V7.414H931.048V8.926H926.162V13ZM935.718 13H934.038V3.2H935.718V13ZM940.543 13H938.863V3.2H943.651C945.513 3.2 946.801 4.334 946.801 5.972C946.801 7.176 945.947 8.17 944.645 8.506C945.289 8.632 945.751 9.024 945.989 9.626L947.249 13H945.457L944.323 9.906C944.183 9.514 943.861 9.304 943.413 9.304H940.543V13ZM940.543 4.712V7.82H943.567C944.603 7.82 945.135 7.078 945.135 6.224C945.135 5.328 944.519 4.712 943.567 4.712H940.543ZM951.397 13H949.717V3.2H951.789L954.855 10.984L957.907 3.2H959.979V13H958.299V6.098L955.583 13H954.113L951.397 6.112V13Z" fill="#0F3239"/>
<path d="M895.828 72L893 74.8284L902.193 84.0209L893 93.2133L895.829 96.0417L905.021 86.8494L914.213 96.0416L917.042 93.2132L907.849 84.0209L917.042 74.8285L914.213 72.0001L905.021 81.1925L895.828 72Z" fill="#0F3239" fill-opacity="0.2"/>
<path d="M895.828 135L893 137.828L902.193 147.021L893 156.213L895.829 159.042L905.021 149.849L914.213 159.042L917.042 156.213L907.849 147.021L917.042 137.828L914.213 135L905.021 144.193L895.828 135Z" fill="#0F3239" fill-opacity="0.2"/>
<path d="M895.828 198L893 200.828L902.193 210.021L893 219.213L895.829 222.042L905.021 212.849L914.213 222.042L917.042 219.213L907.849 210.021L917.042 200.828L914.213 198L905.021 207.193L895.828 198Z" fill="#0F3239" fill-opacity="0.2"/>
<path d="M895.828 261L893 263.828L902.193 273.021L893 282.213L895.829 285.042L905.021 275.849L914.213 285.042L917.042 282.213L907.849 273.021L917.042 263.828L914.213 261L905.021 270.193L895.828 261Z" fill="#0F3239" fill-opacity="0.2"/>
<g clip-path="url(#clip0_1135_828)">
<path d="M482.693 13.6618V0.989517H485.949L486.044 3.57684L485.375 3.86578C485.561 3.27397 485.887 2.73553 486.324 2.29588C486.794 1.81495 487.351 1.42855 487.966 1.15763C488.599 0.871174 489.286 0.723966 489.98 0.725972C490.938 0.725972 491.74 0.917431 492.387 1.30035C493.051 1.70455 493.564 2.31498 493.848 3.03837C494.176 3.81296 494.34 4.76763 494.34 5.90237V13.6618H490.932V6.15979C490.946 5.67007 490.865 5.1822 490.692 4.72385C490.554 4.3649 490.296 4.06442 489.963 3.87279C489.59 3.68023 489.169 3.60138 488.752 3.64602C488.389 3.64096 488.029 3.70025 487.687 3.82113C487.374 3.92999 487.088 4.10398 486.848 4.33159C486.619 4.55137 486.433 4.811 486.297 5.09772C486.159 5.3914 486.089 5.71265 486.093 6.03721V13.6626H482.693V13.6618Z" fill="#3ACE63"/>
<path d="M496.373 13.6618V0.989588H499.654L499.774 5.06364L499.195 4.22397C499.386 3.57263 499.703 2.96552 500.13 2.43779C500.543 1.91667 501.062 1.4883 501.651 1.18046C502.216 0.881542 502.845 0.725231 503.483 0.725165C503.748 0.724696 504.011 0.748731 504.271 0.796962C504.491 0.83567 504.707 0.891287 504.918 0.96332L504.011 4.70291C503.789 4.59462 503.556 4.50897 503.316 4.44724C503.043 4.37471 502.761 4.3385 502.478 4.33954C502.113 4.33586 501.75 4.40522 501.412 4.54355C501.091 4.67419 500.801 4.87009 500.56 5.1188C500.318 5.3715 500.127 5.66885 499.998 5.99438C499.86 6.3457 499.791 6.72028 499.795 7.09761V13.6644L496.373 13.6618Z" fill="black"/>
<path d="M510.648 13.9062C509.631 13.917 508.636 13.6154 507.796 13.042C506.932 12.4474 506.238 11.6378 505.782 10.6929C505.288 9.7005 505.04 8.56637 505.04 7.29036C505.039 6.01436 505.29 4.88428 505.794 3.90013C506.261 2.9589 506.968 2.15698 507.842 1.5746C508.718 1.00386 509.744 0.707799 510.789 0.724418C511.372 0.718216 511.952 0.812095 512.504 1.00197C513 1.1726 513.462 1.42797 513.871 1.75672C514.257 2.07112 514.594 2.44288 514.868 2.85907C515.135 3.26887 515.328 3.72226 515.439 4.1987L514.719 4.07875V0.989715H518.102V13.662H514.677V10.6176L515.442 10.5467C515.309 11.0028 515.098 11.4324 514.818 11.8162C514.521 12.2257 514.162 12.586 513.753 12.8836C513.318 13.2007 512.838 13.4509 512.329 13.6261C511.788 13.8137 511.22 13.9084 510.648 13.9062ZM511.581 10.9591C512.173 10.9721 512.755 10.8137 513.259 10.5029C513.744 10.1928 514.131 9.75014 514.372 9.22716C514.647 8.62277 514.782 7.96444 514.767 7.30087C514.782 6.64772 514.647 5.99989 514.372 5.407C514.126 4.88725 513.74 4.44577 513.259 4.13128C512.758 3.8134 512.174 3.65072 511.581 3.66372C511 3.65157 510.428 3.81447 509.94 4.13128C509.463 4.44929 509.079 4.88831 508.827 5.40349C508.544 5.99418 508.405 6.6429 508.419 7.29736C508.405 7.96229 508.544 8.6216 508.827 9.22366C509.072 9.74489 509.458 10.1878 509.94 10.5029C510.431 10.8122 511.001 10.9708 511.581 10.9591Z" fill="black"/>
<path d="M520.253 13.6619V0.989679H523.536L523.606 3.41065L523.104 3.50608C523.45 2.67817 524.05 1.98157 524.817 1.51678C525.204 1.28168 525.618 1.09441 526.051 0.959033C526.469 0.825958 526.905 0.757458 527.344 0.755901C527.949 0.747228 528.55 0.852988 529.115 1.0676C529.638 1.27136 530.1 1.6053 530.458 2.03774C530.862 2.55103 531.156 3.14289 531.32 3.77576L530.795 3.7276L530.962 3.3441C531.17 2.95864 531.436 2.60703 531.75 2.30129C532.075 1.98557 532.437 1.71119 532.829 1.48438C533.222 1.25603 533.64 1.07527 534.075 0.9459C534.489 0.820572 534.919 0.755982 535.351 0.75415C536.341 0.75415 537.163 0.949989 537.818 1.34166C538.488 1.75145 539.006 2.37002 539.291 3.10244C539.617 3.88462 539.781 4.84309 539.782 5.97783V13.6619H536.374V6.21249C536.391 5.72974 536.309 5.24863 536.134 4.79843C535.996 4.45614 535.753 4.1664 535.44 3.97101C535.081 3.77388 534.675 3.67879 534.266 3.69608C533.918 3.692 533.572 3.75287 533.246 3.87558C532.945 3.98934 532.668 4.15996 532.431 4.37816C532.196 4.59658 532.009 4.86211 531.883 5.15749C531.757 5.45287 531.695 5.77146 531.7 6.09254V13.6654H528.299V6.18797C528.31 5.72391 528.223 5.26278 528.044 4.83433C527.899 4.48675 527.653 4.19064 527.338 3.98415C526.998 3.78199 526.606 3.68199 526.211 3.69608C525.863 3.69188 525.517 3.75276 525.191 3.87558C524.892 3.98735 524.619 4.15829 524.388 4.37816C524.164 4.59514 523.982 4.85122 523.85 5.13378C523.713 5.4261 523.643 5.7453 523.646 6.06802V13.6654L520.253 13.6619Z" fill="black"/>
<path d="M541.965 18.9381V0.988745H545.245L545.338 3.84137L544.716 3.62598C544.845 3.08306 545.132 2.59083 545.542 2.21193C546.017 1.7597 546.574 1.40298 547.183 1.16123C547.836 0.889753 548.536 0.751333 549.243 0.754094C550.284 0.73654 551.307 1.03279 552.177 1.60428C553.048 2.18856 553.752 2.9898 554.218 3.92893C554.721 4.9125 554.972 6.04287 554.972 7.32004C554.992 8.48862 554.738 9.64566 554.23 10.698C553.771 11.646 553.066 12.4533 552.189 13.0349C551.313 13.6061 550.287 13.9025 549.241 13.886C548.522 13.8888 547.809 13.7458 547.146 13.4657C546.516 13.2083 545.942 12.83 545.457 12.352C545.03 11.9512 544.73 11.4336 544.595 10.8635L545.383 10.5282V18.9389L541.965 18.9381ZM548.479 10.9589C549.064 10.9702 549.64 10.8118 550.137 10.5028C550.624 10.1911 551.014 9.74916 551.262 9.22705C551.544 8.63209 551.684 7.97989 551.67 7.32179C551.685 6.66724 551.545 6.01848 551.262 5.42792C551.014 4.90873 550.629 4.46725 550.149 4.15133C549.652 3.84121 549.076 3.68295 548.49 3.69603C547.901 3.68294 547.32 3.83684 546.814 4.13994C546.325 4.44644 545.934 4.88714 545.688 5.40953C545.421 6.00899 545.282 6.65821 545.282 7.31478C545.282 7.97137 545.421 8.62057 545.688 9.22005C545.934 9.75318 546.331 10.2022 546.83 10.5111C547.33 10.82 547.909 10.9751 548.495 10.9572L548.479 10.9589Z" fill="black"/>
<path d="M473.999 0C472.143 0.00219701 470.364 0.740554 469.053 2.05301C467.741 3.36545 467.004 5.14475 467.002 7.00034V7.22432H470.499V7.00034C470.499 6.30762 470.705 5.63045 471.09 5.05447C471.474 4.47849 472.021 4.02958 472.661 3.76448C473.301 3.49939 474.006 3.43003 474.685 3.56517C475.364 3.70032 475.989 4.03389 476.478 4.52373C476.968 5.01355 477.302 5.63763 477.437 6.31704C477.572 6.99647 477.503 7.70069 477.238 8.34068C476.973 8.9807 476.524 9.52767 475.948 9.91257C475.372 10.2974 474.694 10.5028 474.002 10.5028H473.779V13.9998H474.002C475.857 13.9998 477.637 13.2626 478.949 11.9505C480.261 10.6383 480.998 8.85873 480.998 7.00311C480.998 5.14749 480.261 3.36786 478.949 2.05573C477.637 0.743599 475.857 0.0064512 474.002 0.0064512L473.999 0Z" fill="#3ACE63"/>
<path d="M473.776 13.9932V8.03628C473.775 7.82017 473.689 7.61316 473.536 7.46061C473.383 7.30807 473.175 7.22241 472.959 7.22241H467.002L473.776 13.9932Z" fill="#177A33"/>
</g>
<path fill-rule="evenodd" clip-rule="evenodd" d="M524.455 78.3719L507.918 95.9158L498.545 85.9719L501.455 83.2282L507.918 90.0842L521.545 75.6282L524.455 78.3719Z" fill="#645CF7"/>
<path fill-rule="evenodd" clip-rule="evenodd" d="M524.455 141.372L507.918 158.916L498.545 148.972L501.455 146.228L507.918 153.084L521.545 138.628L524.455 141.372Z" fill="#645CF7"/>
<path fill-rule="evenodd" clip-rule="evenodd" d="M524.455 204.372L507.918 221.916L498.545 211.972L501.455 209.228L507.918 216.084L521.545 201.628L524.455 204.372Z" fill="#645CF7"/>
<path fill-rule="evenodd" clip-rule="evenodd" d="M524.455 267.372L507.918 284.916L498.545 274.972L501.455 272.228L507.918 279.084L521.545 264.628L524.455 267.372Z" fill="#645CF7"/>
<line x1="446.5" y1="49" x2="446.5" y2="305" stroke="black"/>
<line x1="576.5" y1="49" x2="576.5" y2="305" stroke="black"/>
<line x1="708.5" y1="49" x2="708.5" y2="305" stroke="black"/>
<line x1="840.5" y1="49" x2="840.5" y2="305" stroke="black"/>
<defs>
<clipPath id="clip0_1135_828">
<rect width="87.9954" height="19" fill="white" transform="translate(467.002)"/>
</clipPath>
</defs>
</svg>
