<svg width="57" height="56" viewBox="0 0 57 56" fill="none" xmlns="http://www.w3.org/2000/svg">
<rect x="0.5" width="56" height="56" rx="28" fill="#645CF6"/>
<g clip-path="url(#clip0_114_707)">
<path d="M44.6948 27.279H17.0901V36.4943C17.2053 36.4943 17.3067 36.4943 17.4075 36.4943C19.2958 36.4943 21.1836 36.4924 23.072 36.4943C23.9238 36.4949 24.4997 36.9161 24.6968 37.6729C24.9147 38.5097 24.3313 39.3979 23.4738 39.53C23.3405 39.5506 23.2047 39.5675 23.0695 39.5675C21.0979 39.57 19.1262 39.5763 17.1546 39.5669C15.6956 39.56 14.5352 38.725 14.1415 37.3931C14.0457 37.0682 14 36.7171 14 36.3779C14.0019 30.2965 14.025 24.2151 14.0156 18.1331C14.0138 16.7161 14.957 15.3985 16.3885 15.0899C16.6507 15.0336 16.9249 15.0042 17.1934 15.0036C25.299 14.9998 33.4039 14.9986 41.5095 15.0011C43.3365 15.0011 44.6916 16.3568 44.6935 18.1788C44.6966 21.1 44.6941 24.0205 44.6948 26.9416V27.2783V27.279ZM41.6115 18.0931H17.0945V21.1162H41.6115V18.0931Z" fill="white"/>
<line x1="33.4118" y1="31.917" x2="42.9169" y2="40.366" stroke="white" stroke-width="2" stroke-linecap="round"/>
<line x1="42.4067" y1="31.4142" x2="33.4142" y2="40.4068" stroke="white" stroke-width="2" stroke-linecap="round"/>
</g>
<defs>
<clipPath id="clip0_114_707">
<rect width="30.6954" height="27" fill="white" transform="translate(14 15)"/>
</clipPath>
</defs>
</svg>
