<svg xmlns="http://www.w3.org/2000/svg" width="47" height="32" viewBox="0 0 47 32" fill="none"><path d="M29.8696 8.85034H26.589C26.2379 8.85034 25.9521 9.13842 25.9521 9.49244V11.6011C25.9521 11.9551 26.2379 12.2432 26.589 12.2432H27.1415V22.8392C27.1415 23.1932 27.4273 23.4813 27.7784 23.4813H29.8696C30.2207 23.4813 30.5065 23.1932 30.5065 22.8392V9.49218C30.5065 9.13842 30.2207 8.85034 29.8696 8.85034Z" fill="#16205B"></path><path d="M0 16.4291C0 20.4418 3.23801 23.7065 7.21799 23.7065C11.198 23.7065 14.436 20.4418 14.436 16.4291C14.436 13.8871 13.1135 11.527 10.9686 10.2114C12.2469 9.11424 12.9752 7.5218 12.9752 5.80456C12.9754 2.60399 10.3927 0 7.21799 0C4.0433 0 1.46083 2.60399 1.46083 5.80456C1.46083 7.5218 2.18904 9.11398 3.46743 10.2114C1.32251 11.527 0 13.8874 0 16.4291ZM7.21799 8.44649C5.77325 8.44649 4.59789 7.26146 4.59789 5.80482C4.59789 4.34819 5.77325 3.16315 7.21799 3.16315C8.66273 3.16315 9.83809 4.34819 9.83809 5.80482C9.83809 7.26146 8.66273 8.44649 7.21799 8.44649ZM3.13706 16.4291C3.13706 14.1603 4.96771 12.3145 7.21799 12.3145C9.46828 12.3145 11.2989 14.1603 11.2989 16.4291C11.2989 18.6979 9.46828 20.5433 7.21799 20.5433C4.96796 20.5436 3.13706 18.6979 3.13706 16.4291Z" fill="#16205B"></path><path d="M46.3627 8.9397H44.4993C44.1482 8.9397 43.8624 9.22778 43.8624 9.5818V10.4296C42.6614 9.60352 41.2247 9.15164 39.7815 9.15164C35.8015 9.15164 32.5635 12.4163 32.5635 16.4291C32.5635 20.4418 35.8015 23.7065 39.7815 23.7065C41.2244 23.7065 42.6611 23.2546 43.8624 22.4286V24.6463C43.8624 25.7678 43.4044 26.8649 42.6059 27.6564C41.8192 28.4359 40.7905 28.8564 39.7104 28.8362C37.4993 28.798 35.7006 26.9526 35.7006 24.7225V24.6317C35.7006 24.2777 35.4148 23.9896 35.0637 23.9896H33.2003C32.8492 23.9896 32.5635 24.2777 32.5635 24.6317C32.5635 28.656 35.7696 31.9609 39.7104 31.9996C39.7345 31.9999 39.7581 31.9999 39.7823 31.9999C41.6944 31.9999 43.4947 31.2526 44.8582 29.8912C46.2391 28.5123 46.9998 26.6768 46.9998 24.7225V9.5818C46.9995 9.22778 46.7141 8.9397 46.3627 8.9397ZM43.8624 16.4291C43.8624 18.6979 42.0318 20.5433 39.7815 20.5433C37.5312 20.5433 35.7006 18.6976 35.7006 16.4291C35.7006 14.1605 37.5312 12.3145 39.7815 12.3145C42.0318 12.3145 43.8624 14.1605 43.8624 16.4291Z" fill="#16205B"></path><path d="M29.2931 7.3418C30.422 6.87034 30.9581 5.56547 30.4905 4.42728C30.0228 3.2891 28.7286 2.74861 27.5997 3.22007C26.4708 3.69154 25.9347 4.99641 26.4024 6.13459C26.87 7.27278 28.1642 7.81326 29.2931 7.3418Z" fill="#16205B"></path><path d="M21.0106 6.08345C21.0108 4.165 22.1042 3.77147 23.5645 3.77147C23.8116 3.77147 24.0116 3.56973 24.0116 3.32064V0.834132C24.0116 0.585037 23.8116 0.383301 23.5645 0.383301C19.7148 0.383301 17.6457 2.35435 17.6457 6.08345L17.6454 8.8897H16.2995C15.9699 8.8897 15.7026 9.15921 15.7026 9.49151V11.6808C15.7026 12.0131 15.9699 12.2826 16.2995 12.2826H17.6454V22.8092C17.6454 23.0931 17.8735 23.3231 18.1551 23.3231H20.5004C20.7819 23.3231 21.01 23.0931 21.01 22.8092V12.2826H23.4324C23.762 12.2826 24.0293 12.0131 24.0293 11.6808V9.49151C24.0293 9.15921 23.762 8.8897 23.4324 8.8897H21.01L21.0106 6.08345Z" fill="#16205B"></path></svg>