<svg width="57" height="56" viewBox="0 0 57 56" fill="none" xmlns="http://www.w3.org/2000/svg">
<rect x="0.75" width="56" height="56" rx="28" fill="#645CF6"/>
<path d="M30.718 20.3835C32.4984 20.9055 33.5564 22.0892 33.857 23.6964C33.9259 24.0647 34.2319 24.3625 34.6142 24.3625H37.2026C37.6184 24.3625 37.9547 24.0099 37.8987 23.5928C37.6447 21.7017 36.8612 20.127 35.6282 18.9488C34.4043 17.7792 32.7402 17.003 30.718 16.6936V13.6713C30.718 13.272 30.3943 12.9484 29.995 12.9484H28.7275C28.3282 12.9484 28.0045 13.272 28.0045 13.6713V16.5601C25.7141 16.681 23.8664 17.399 22.588 18.5322C21.2999 19.674 20.5928 21.2349 20.5928 23.0218C20.5928 25.2492 21.635 26.6576 23.0078 27.608C24.3191 28.5158 25.9339 29.0069 27.2269 29.4C27.2841 29.4174 27.3407 29.4347 27.3966 29.4517L27.3968 29.4518L28.0045 29.6341V36.4272C25.9368 35.9576 24.5925 34.8326 24.1355 33.2398C24.0387 32.9022 23.7447 32.6375 23.3855 32.6375H20.7168C20.3004 32.6375 19.962 32.9917 20.0282 33.4096C20.5928 36.9752 23.5687 39.432 28.0045 40.0492V43.3287C28.0045 43.728 28.3282 44.0516 28.7275 44.0516H29.995C30.3943 44.0516 30.718 43.728 30.718 43.3287V40.1829C33.1363 40.0945 35.1126 39.4168 36.4878 38.2633C37.8737 37.101 38.6452 35.4589 38.6452 33.4626C38.6452 31.3191 37.7994 29.9507 36.5505 28.9947C35.3055 28.0417 33.6612 27.4997 32.0674 27.0006L32.0669 27.0005L30.718 26.5926V20.3835ZM28.0045 25.7226C27.0621 25.4237 26.2017 25.1391 25.5715 24.7151C24.9304 24.2838 24.5309 23.7105 24.5309 22.8285C24.5309 22.0398 24.8691 21.4021 25.4772 20.9402C26.0766 20.4848 26.9405 20.1986 28.0045 20.113V25.7226ZM30.718 36.6306V30.439L31.07 30.5473C32.1655 30.8856 33.0515 31.2298 33.6637 31.7068C34.2722 32.1809 34.6105 32.7866 34.6105 33.6559C34.6105 34.5432 34.2707 35.2527 33.6116 35.7579C32.9596 36.2576 31.9906 36.5607 30.718 36.6306Z" fill="white" stroke="white" stroke-width="0.103298"/>
</svg>
