<svg width="57" height="56" viewBox="0 0 57 56" fill="none" xmlns="http://www.w3.org/2000/svg">
<rect x="0.25" width="56" height="56" rx="28" fill="#645CF6"/>
<path d="M27.7695 20.1499H42.7695" stroke="white" stroke-width="3" stroke-linecap="round" stroke-linejoin="round"/>
<path d="M13.5 20.1499H16.77" stroke="white" stroke-width="3" stroke-linecap="round" stroke-linejoin="round"/>
<path d="M22.1207 24.8C24.6888 24.8 26.7707 22.7181 26.7707 20.15C26.7707 17.5819 24.6888 15.5 22.1207 15.5C19.5526 15.5 17.4707 17.5819 17.4707 20.15C17.4707 22.7181 19.5526 24.8 22.1207 24.8Z" stroke="white" stroke-width="3" stroke-linecap="round" stroke-linejoin="round"/>
<path d="M29.77 35.23H13.5" stroke="white" stroke-width="3" stroke-linecap="round" stroke-linejoin="round"/>
<path d="M43.6495 35.23H40.7695" stroke="white" stroke-width="3" stroke-linecap="round" stroke-linejoin="round"/>
<path d="M35.0405 39.96C37.6529 39.96 39.7705 37.8423 39.7705 35.23C39.7705 32.6177 37.6529 30.5 35.0405 30.5C32.4282 30.5 30.3105 32.6177 30.3105 35.23C30.3105 37.8423 32.4282 39.96 35.0405 39.96Z" stroke="white" stroke-width="3" stroke-linecap="round" stroke-linejoin="round"/>
</svg>
