<svg width="57" height="56" viewBox="0 0 57 56" fill="none" xmlns="http://www.w3.org/2000/svg">
<rect x="0.5" width="56" height="56" rx="28" fill="#645CF6"/>
<path d="M13.4351 25.1101C13.8451 23.1001 14.6351 21.2201 15.7351 19.5701" stroke="white" stroke-width="3" stroke-linecap="round" stroke-linejoin="round"/>
<path d="M20.075 15.1901C21.755 14.0501 23.675 13.2301 25.735 12.8101" stroke="white" stroke-width="3" stroke-linecap="round" stroke-linejoin="round"/>
<path d="M31.645 24.3199L38.045 17.4199C39.335 16.0299 41.595 16.3099 42.515 17.9599L45.135 22.6799C46.025 24.2899 45.135 26.2999 43.355 26.7299L34.345 28.9099C31.665 29.5599 29.785 26.3399 31.655 24.3199H31.645Z" stroke="white" stroke-width="3" stroke-linecap="round" stroke-linejoin="round"/>
<path d="M25.085 12.96C26.305 12.66 27.575 12.5 28.875 12.5C30.675 12.5 32.415 12.8 34.025 13.36" stroke="white" stroke-width="3" stroke-linecap="round" stroke-linejoin="round"/>
<path d="M19.325 15.73C19.545 15.56 19.775 15.4 20.005 15.24" stroke="white" stroke-width="3" stroke-linecap="round" stroke-linejoin="round"/>
<path d="M13.125 28.26C13.125 26.21 13.515 24.26 14.225 22.46" stroke="white" stroke-width="3" stroke-linecap="round" stroke-linejoin="round"/>
<path d="M18.875 40.43C16.615 38.57 14.875 36.08 13.925 33.24" stroke="white" stroke-width="3" stroke-linecap="round" stroke-linejoin="round"/>
<path d="M44.0749 32.47C42.2349 39.13 36.1349 44.02 28.8849 44.02C27.0149 44.02 25.2249 43.7 23.5649 43.1" stroke="white" stroke-width="3" stroke-linecap="round" stroke-linejoin="round"/>
</svg>
