<svg width="57" height="56" viewBox="0 0 57 56" fill="none" xmlns="http://www.w3.org/2000/svg">
<rect x="0.75" width="56" height="56" rx="28" fill="#645CF6"/>
<path d="M16.1027 35.6554C11.8735 28.5252 14.2251 19.3342 21.3528 15.1034C28.4805 10.8727 37.6681 13.2251 41.8973 20.3554C46.1265 27.4857 43.7749 36.6767 36.6472 40.9074C31.9258 43.6975 26.0742 43.6975 21.3528 40.9074L16.1756 42.3845C15.5193 42.5669 14.8266 42.1839 14.6261 41.5274C14.5532 41.3086 14.5532 41.0715 14.6261 40.8345L16.1027 35.6554Z" stroke="white" stroke-width="3" stroke-linecap="round" stroke-linejoin="round"/>
<path d="M23 30C24.1046 30 25 29.1046 25 28C25 26.8954 24.1046 26 23 26C21.8954 26 21 26.8954 21 28C21 29.1046 21.8954 30 23 30Z" fill="white"/>
<path d="M29 30C30.1046 30 31 29.1046 31 28C31 26.8954 30.1046 26 29 26C27.8954 26 27 26.8954 27 28C27 29.1046 27.8954 30 29 30Z" fill="white"/>
<path d="M35 30C36.1046 30 37 29.1046 37 28C37 26.8954 36.1046 26 35 26C33.8954 26 33 26.8954 33 28C33 29.1046 33.8954 30 35 30Z" fill="white"/>
</svg>
