<svg width="139" height="31" viewBox="0 0 139 31" fill="none" xmlns="http://www.w3.org/2000/svg">
<path d="M46.3945 21.4351V1.4177H51.5783L51.7678 7.85319L50.8536 6.52681C51.154 5.49795 51.6556 4.53893 52.3293 3.70532C52.9826 2.88215 53.8016 2.20548 54.7331 1.71921C55.6245 1.24703 56.6179 1.00011 57.6266 1.00001C58.0441 0.999269 58.4608 1.03724 58.8713 1.11342C59.2184 1.17457 59.5601 1.26242 59.8934 1.37621L58.4606 7.28336C58.109 7.11231 57.7411 6.97702 57.3624 6.8795C56.9306 6.76494 56.4857 6.70773 56.0388 6.70938C55.4615 6.70356 54.8887 6.81313 54.3542 7.03164C53.848 7.238 53.3902 7.54745 53.0098 7.94033C52.6267 8.33948 52.3248 8.80919 52.1205 9.32341C51.9029 9.87836 51.7945 10.4701 51.801 11.0661V21.4393L46.3945 21.4351Z" fill="white"/>
<path d="M68.9436 21.967C67.3376 21.984 65.7652 21.5075 64.4389 20.6019C63.0738 19.6626 61.9773 18.3837 61.2578 16.8911C60.4768 15.3235 60.0858 13.532 60.085 11.5163C60.084 9.50074 60.4809 7.71563 61.2758 6.16105C62.0142 4.67426 63.1302 3.40752 64.5122 2.48757C65.895 1.58602 67.5157 1.11835 69.1663 1.1446C70.0878 1.1348 71.0043 1.2831 71.8758 1.58304C72.659 1.85256 73.3894 2.25595 74.0348 2.77525C74.6457 3.27189 75.1769 3.85914 75.6101 4.51656C76.0318 5.1639 76.337 5.88009 76.5119 6.63268L75.375 6.44319V1.56367H80.7192V21.5811H75.3086V16.7721L76.5174 16.6601C76.3074 17.3807 75.9737 18.0592 75.5312 18.6656C75.0627 19.3124 74.4952 19.8814 73.8494 20.3515C73.1619 20.8525 72.4034 21.2478 71.5991 21.5244C70.7452 21.8208 69.8473 21.9704 68.9436 21.967ZM70.418 17.3115C71.3523 17.3321 72.2727 17.0819 73.068 16.5909C73.835 16.1012 74.4455 15.4019 74.8273 14.5758C75.2606 13.6211 75.4739 12.5811 75.451 11.5329C75.474 10.5012 75.2607 9.47789 74.8273 8.54133C74.4376 7.72034 73.8288 7.02296 73.068 6.52618C72.2767 6.02404 71.3548 5.76707 70.418 5.78761C69.4995 5.76842 68.5965 6.02574 67.8261 6.52618C67.072 7.02852 66.465 7.72201 66.0668 8.5358C65.621 9.46887 65.4007 10.4936 65.4237 11.5274C65.4002 12.5777 65.6203 13.6192 66.0668 14.5702C66.4549 15.3936 67.0639 16.0932 67.8261 16.5909C68.6009 17.0796 69.5021 17.33 70.418 17.3115Z" fill="white"/>
<path d="M84.1162 21.5809V1.56345H89.3028L89.4134 5.38768L88.6195 5.53844C89.166 4.23065 90.1138 3.13028 91.3262 2.39607C91.9378 2.02471 92.5922 1.72888 93.275 1.51505C93.9356 1.30484 94.6245 1.19663 95.3178 1.19417C96.2731 1.18047 97.2225 1.34753 98.1158 1.68655C98.9415 2.00841 99.6713 2.5359 100.236 3.21901C100.876 4.02981 101.339 4.96473 101.598 5.96443L100.769 5.88836L101.033 5.28257C101.362 4.67368 101.782 4.11827 102.277 3.63531C102.791 3.13659 103.363 2.70317 103.983 2.3449C104.603 1.98419 105.263 1.69865 105.951 1.4943C106.604 1.29633 107.283 1.1943 107.966 1.19141C109.529 1.19141 110.828 1.50076 111.862 2.11945C112.922 2.76676 113.739 3.74389 114.19 4.90084C114.705 6.13639 114.964 7.65041 114.966 9.44289V21.5809H109.582V9.81355C109.608 9.05099 109.479 8.29101 109.203 7.57987C108.985 7.03917 108.602 6.58149 108.107 6.27286C107.54 5.96145 106.899 5.81125 106.252 5.83857C105.702 5.83212 105.156 5.92827 104.641 6.1221C104.165 6.3018 103.728 6.57133 103.354 6.91599C102.982 7.26101 102.687 7.68046 102.488 8.14705C102.289 8.61364 102.19 9.11689 102.199 9.62407V21.5864H96.8268V9.77483C96.8435 9.04178 96.7063 8.31336 96.4243 7.63658C96.1945 7.08752 95.8059 6.61979 95.3081 6.2936C94.7707 5.97426 94.1527 5.8163 93.5281 5.83857C92.978 5.83193 92.4316 5.92809 91.9168 6.1221C91.4449 6.29866 91.0135 6.56868 90.6485 6.91599C90.2946 7.25875 90.0064 7.66326 89.7979 8.10959C89.5819 8.57135 89.4717 9.07557 89.4757 9.58534V21.5864L84.1162 21.5809Z" fill="white"/>
<path d="M118.412 29.9155V1.56226H123.595L123.741 6.06835L122.758 5.72811C122.962 4.8705 123.416 4.09295 124.063 3.49442C124.813 2.78008 125.693 2.21659 126.655 1.83472C127.687 1.40588 128.793 1.18723 129.91 1.19159C131.554 1.16386 133.169 1.63182 134.544 2.53456C135.92 3.45752 137.031 4.72318 137.768 6.20665C138.562 7.76033 138.959 9.54589 138.959 11.5633C138.991 13.4093 138.59 15.237 137.786 16.8993C137.063 18.3968 135.949 19.672 134.562 20.5907C133.179 21.4929 131.558 21.9611 129.907 21.9351C128.77 21.9395 127.644 21.7137 126.597 21.2712C125.602 20.8646 124.695 20.267 123.929 19.5119C123.254 18.8789 122.78 18.0612 122.567 17.1607L123.812 16.631V29.9169L118.412 29.9155ZM128.702 17.3115C129.627 17.3293 130.537 17.079 131.322 16.5909C132.091 16.0986 132.707 15.4004 133.099 14.5757C133.544 13.6359 133.765 12.6057 133.744 11.5661C133.766 10.5322 133.546 9.50737 133.099 8.57449C132.708 7.75437 132.099 7.057 131.34 6.55796C130.555 6.06808 129.645 5.8181 128.72 5.83875C127.789 5.81808 126.872 6.06118 126.073 6.53998C125.3 7.02413 124.683 7.72027 124.294 8.54545C123.871 9.49238 123.653 10.5179 123.653 11.555C123.653 12.5922 123.871 13.6177 124.294 14.5646C124.683 15.4068 125.31 16.1161 126.098 16.604C126.887 17.092 127.802 17.337 128.729 17.3087L128.702 17.3115Z" fill="white"/>
<path d="M24.7861 21.5807V1.56331H29.9284L30.0792 5.65032L29.0225 6.10674C29.3163 5.17189 29.8305 4.32136 30.5218 3.62687C31.2633 2.86718 32.1436 2.25681 33.1151 1.82886C34.1143 1.37637 35.1992 1.14383 36.2962 1.147C37.8093 1.147 39.0766 1.44944 40.0983 2.0543C41.1469 2.69279 41.9577 3.65705 42.4066 4.79973C42.9239 6.0233 43.1825 7.53132 43.1825 9.3238V21.5807H37.7996V9.73042C37.8228 8.95684 37.694 8.18618 37.4206 7.46216C37.2021 6.89515 36.7953 6.42051 36.2685 6.11781C35.6797 5.81364 35.0146 5.68908 34.3557 5.75959C33.7831 5.75161 33.2137 5.84525 32.6739 6.0362C32.1801 6.20816 31.7285 6.48299 31.3489 6.84254C30.9877 7.18971 30.6929 7.59982 30.4789 8.05274C30.2605 8.51664 30.1503 9.02409 30.1566 9.53679V21.5821H24.7861V21.5807Z" fill="#3ACE63"/>
<path d="M11.0521 0C8.12098 0.00347046 5.31096 1.1698 3.23887 3.24299C1.16678 5.31616 0.00192633 8.1268 0 11.0579V11.4117H5.52387V11.0579C5.52387 9.9637 5.84836 8.89402 6.45629 7.98419C7.06422 7.07435 7.9283 6.36523 8.93925 5.94648C9.9502 5.52773 11.0626 5.41816 12.1358 5.63164C13.2091 5.84512 14.1949 6.37205 14.9686 7.1458C15.7424 7.91954 16.2694 8.90536 16.4828 9.97858C16.6963 11.0518 16.5866 12.1642 16.168 13.1752C15.7492 14.1862 15.0401 15.0502 14.1303 15.6582C13.2204 16.266 12.1507 16.5905 11.0565 16.5905H10.7041V22.1144H11.0565C13.9877 22.1144 16.7988 20.95 18.8715 18.8773C20.9442 16.8046 22.1086 13.9935 22.1086 11.0623C22.1086 8.13111 20.9442 5.31997 18.8715 3.24729C16.7988 1.17461 13.9877 0.0101905 11.0565 0.0101905L11.0521 0Z" fill="#3ACE63"/>
<path d="M10.6998 22.1045V12.6948C10.6986 12.3534 10.5622 12.0264 10.3204 11.7854C10.0786 11.5445 9.75117 11.4092 9.4098 11.4092H0L10.6998 22.1045Z" fill="#177A33"/>
</svg>
