<svg width="139" height="31" viewBox="0 0 139 31" fill="none" xmlns="http://www.w3.org/2000/svg">
<path d="M24.7861 21.5807V1.56331H29.9284L30.0792 5.65032L29.0225 6.10674C29.3163 5.17189 29.8305 4.32136 30.5218 3.62687C31.2633 2.86718 32.1436 2.25681 33.1151 1.82886C34.1143 1.37637 35.1992 1.14383 36.2962 1.147C37.8093 1.147 39.0766 1.44944 40.0983 2.0543C41.1469 2.69279 41.9577 3.65705 42.4066 4.79973C42.9239 6.0233 43.1825 7.53132 43.1825 9.3238V21.5807H37.7996V9.73042C37.8228 8.95684 37.694 8.18618 37.4206 7.46216C37.2021 6.89515 36.7953 6.42051 36.2685 6.11781C35.6797 5.81364 35.0146 5.68908 34.3557 5.75959C33.7831 5.75161 33.2137 5.84525 32.6739 6.0362C32.1801 6.20816 31.7285 6.483 31.3489 6.84254C30.9877 7.18971 30.6929 7.59982 30.4789 8.05274C30.2605 8.51664 30.1503 9.0241 30.1566 9.53679V21.5821H24.7861V21.5807Z" fill="#3ACE63"/>
<path d="M46.3945 21.5806V1.56321H51.5783L51.7678 7.9987L50.8536 6.67232C51.154 5.64346 51.6556 4.68444 52.3293 3.85083C52.9826 3.02766 53.8016 2.35098 54.7331 1.86472C55.6245 1.39253 56.6179 1.14562 57.6266 1.14552C58.0441 1.14478 58.4608 1.18274 58.8713 1.25893C59.2184 1.32007 59.5601 1.40793 59.8934 1.52171L58.4606 7.42887C58.109 7.25782 57.7411 7.12253 57.3624 7.02501C56.9306 6.91045 56.4857 6.85324 56.0388 6.85489C55.4615 6.84907 54.8887 6.95863 54.3542 7.17715C53.848 7.3835 53.3902 7.69296 53.0098 8.08583C52.6267 8.48499 52.3248 8.9547 52.1205 9.46892C51.9029 10.0239 51.7945 10.6156 51.801 11.2116V21.5848L46.3945 21.5806Z" fill="black"/>
<path d="M68.9434 21.9667C67.3373 21.9837 65.7649 21.5073 64.4387 20.6016C63.0736 19.6624 61.9771 18.3834 61.2576 16.8908C60.4765 15.3232 60.0855 13.5317 60.0847 11.5161C60.0838 9.50049 60.4807 7.71539 61.2756 6.1608C62.014 4.67401 63.13 3.40727 64.512 2.48733C65.8948 1.58578 67.5155 1.11811 69.1661 1.14436C70.0876 1.13456 71.004 1.28285 71.8755 1.58279C72.6588 1.85231 73.3892 2.2557 74.0345 2.77501C74.6454 3.27165 75.1767 3.85889 75.6098 4.51631C76.0315 5.16365 76.3368 5.87984 76.5116 6.63243L75.3747 6.44295V1.56343H80.719V21.5809H75.3083V16.7719L76.5171 16.6598C76.3072 17.3804 75.9735 18.059 75.531 18.6653C75.0624 19.3122 74.4949 19.8812 73.8492 20.3513C73.1616 20.8522 72.4032 21.2475 71.5989 21.5241C70.745 21.8205 69.8471 21.9702 68.9434 21.9667ZM70.4177 17.3113C71.352 17.3319 72.2725 17.0817 73.0677 16.5907C73.8348 16.1009 74.4453 15.4016 74.827 14.5755C75.2603 13.6208 75.4736 12.5809 75.4508 11.5327C75.4738 10.501 75.2605 9.47765 74.827 8.54109C74.4374 7.72009 73.8286 7.02271 73.0677 6.52594C72.2765 6.02379 71.3545 5.76683 70.4177 5.78737C69.4992 5.76817 68.5962 6.02549 67.8258 6.52594C67.0718 7.02827 66.4647 7.72176 66.0666 8.53556C65.6208 9.46863 65.4005 10.4934 65.4234 11.5272C65.3999 12.5775 65.6201 13.619 66.0666 14.57C66.4547 15.3933 67.0636 16.0929 67.8258 16.5907C68.6006 17.0793 69.5019 17.3298 70.4177 17.3113Z" fill="black"/>
<path d="M84.116 21.5809V1.56345H89.3025L89.4132 5.38768L88.6193 5.53844C89.1657 4.23065 90.1136 3.13028 91.326 2.39607C91.9376 2.02471 92.5919 1.72888 93.2748 1.51505C93.9353 1.30484 94.6242 1.19663 95.3176 1.19417C96.2729 1.18047 97.2222 1.34753 98.1156 1.68655C98.9413 2.00841 99.6711 2.5359 100.236 3.21901C100.875 4.02981 101.339 4.96473 101.598 5.96443L100.768 5.88836L101.032 5.28257C101.362 4.67368 101.781 4.11827 102.277 3.63531C102.79 3.13659 103.363 2.70317 103.983 2.3449C104.602 1.98419 105.263 1.69865 105.951 1.4943C106.604 1.29633 107.283 1.1943 107.966 1.19141C109.529 1.19141 110.827 1.50076 111.862 2.11945C112.921 2.76676 113.739 3.74389 114.19 4.90084C114.705 6.13639 114.964 7.65041 114.966 9.44289V21.5809H109.581V9.81355C109.608 9.05099 109.479 8.29101 109.202 7.57987C108.985 7.03917 108.601 6.58149 108.107 6.27286C107.54 5.96145 106.899 5.81125 106.252 5.83857C105.702 5.83212 105.156 5.92827 104.641 6.1221C104.165 6.3018 103.728 6.57133 103.353 6.91599C102.981 7.26101 102.686 7.68046 102.487 8.14705C102.288 8.61364 102.19 9.11689 102.198 9.62407V21.5864H96.8265V9.77483C96.8433 9.04178 96.706 8.31336 96.424 7.63658C96.1943 7.08752 95.8057 6.61979 95.3079 6.2936C94.7704 5.97426 94.1525 5.8163 93.5279 5.83857C92.9778 5.83193 92.4314 5.92809 91.9166 6.1221C91.4447 6.29866 91.0133 6.56868 90.6483 6.91599C90.2943 7.25875 90.0061 7.66326 89.7977 8.10959C89.5816 8.57135 89.4714 9.07557 89.4754 9.58534V21.5864L84.116 21.5809Z" fill="black"/>
<path d="M118.412 29.9153V1.56201H123.595L123.741 6.0681L122.758 5.72786C122.962 4.87025 123.416 4.09271 124.064 3.49418C124.813 2.77983 125.693 2.21635 126.656 1.83448C127.687 1.40564 128.793 1.18699 129.91 1.19135C131.555 1.16362 133.17 1.63158 134.545 2.53432C135.92 3.45728 137.032 4.72294 137.769 6.20641C138.563 7.76008 138.959 9.54565 138.959 11.5631C138.991 13.409 138.59 15.2367 137.787 16.8991C137.063 18.3965 135.949 19.6717 134.563 20.5905C133.18 21.4927 131.558 21.9609 129.907 21.9349C128.77 21.9393 127.645 21.7134 126.597 21.271C125.602 20.8644 124.695 20.2667 123.929 19.5117C123.254 18.8787 122.781 18.061 122.567 17.1605L123.812 16.6307V29.9166L118.412 29.9153ZM128.702 17.3112C129.627 17.3291 130.537 17.0787 131.322 16.5906C132.091 16.0984 132.707 15.4002 133.099 14.5755C133.544 13.6356 133.765 12.6054 133.744 11.5659C133.767 10.5319 133.546 9.50713 133.099 8.57425C132.708 7.75412 132.099 7.05676 131.34 6.55771C130.556 6.06784 129.645 5.81786 128.72 5.83851C127.79 5.81783 126.872 6.06094 126.073 6.53973C125.3 7.02388 124.683 7.72003 124.295 8.54521C123.872 9.49213 123.653 10.5177 123.653 11.5548C123.653 12.592 123.872 13.6175 124.295 14.5644C124.683 15.4066 125.31 16.1158 126.099 16.6038C126.887 17.0917 127.802 17.3368 128.729 17.3084L128.702 17.3112Z" fill="black"/>
<path d="M11.0521 0C8.12098 0.00347046 5.31096 1.1698 3.23887 3.24299C1.16678 5.31616 0.00192633 8.1268 0 11.0579V11.4117H5.52387V11.0579C5.52387 9.9637 5.84836 8.89402 6.45629 7.98419C7.06422 7.07435 7.9283 6.36523 8.93925 5.94648C9.9502 5.52773 11.0626 5.41816 12.1358 5.63164C13.2091 5.84512 14.1949 6.37205 14.9686 7.1458C15.7424 7.91954 16.2694 8.90536 16.4828 9.97858C16.6963 11.0518 16.5866 12.1642 16.168 13.1752C15.7492 14.1862 15.0401 15.0502 14.1303 15.6582C13.2204 16.266 12.1507 16.5905 11.0565 16.5905H10.7041V22.1144H11.0565C13.9877 22.1144 16.7988 20.95 18.8715 18.8773C20.9442 16.8046 22.1086 13.9935 22.1086 11.0623C22.1086 8.13111 20.9442 5.31997 18.8715 3.24729C16.7988 1.17461 13.9877 0.0101905 11.0565 0.0101905L11.0521 0Z" fill="#3ACE63"/>
<path d="M10.6998 22.1043V12.6945C10.6986 12.3532 10.5622 12.0262 10.3204 11.7852C10.0786 11.5442 9.75117 11.4089 9.4098 11.4089H0L10.6998 22.1043Z" fill="#177A33"/>
</svg>
