<svg width="57" height="56" viewBox="0 0 57 56" fill="none" xmlns="http://www.w3.org/2000/svg">
<rect x="0.25" width="56" height="56" rx="28" fill="#645CF6"/>
<g clip-path="url(#clip0_114_702)">
<path d="M16.7456 28.001C16.7456 23.1682 16.7456 18.3345 16.7456 13.5017C16.7456 12.3562 17.3477 11.7466 18.4951 11.7466C24.6784 11.7448 30.8617 11.7466 37.046 11.7476C38.1347 11.7476 38.762 12.3637 38.762 13.4439C38.762 21.2295 38.7592 29.0151 38.762 36.8007C38.762 37.4037 38.5373 37.8846 38.0722 38.2565C35.7672 40.0992 33.4594 41.9391 31.1553 43.7818C30.7079 44.1398 30.1953 44.2507 29.6351 44.2497C26.1548 44.2451 22.6744 44.2479 19.1941 44.2488C18.8986 44.2488 18.6032 44.2591 18.3086 44.2488C17.3645 44.2153 16.7474 43.5842 16.7465 42.6391C16.7428 39.1271 16.7465 35.6151 16.7465 32.103C16.7465 30.7357 16.7465 29.3683 16.7465 28.0001H16.7446L16.7456 28.001ZM37.7059 36.3943C37.7143 36.2069 37.7236 36.0997 37.7236 35.9916C37.7236 28.5472 37.7236 21.1037 37.7208 13.6593C37.7208 12.9136 37.6025 12.7962 36.8531 12.7962C30.8086 12.7952 24.7651 12.7952 18.7206 12.7971C17.8687 12.7971 17.7867 12.8791 17.7867 13.7329C17.7839 23.2745 17.7839 32.817 17.7848 42.3586C17.7848 43.0735 17.9106 43.2002 18.6283 43.2002C22.0621 43.2021 25.4958 43.2002 28.9296 43.1993C29.0498 43.1993 29.1691 43.1853 29.3341 43.176C29.3341 42.9821 29.3341 42.8153 29.3341 42.6484C29.3341 41.1413 29.3322 39.6332 29.3359 38.1261C29.3387 37.0113 29.9567 36.3924 31.0621 36.3924C33.0978 36.3924 35.1334 36.3924 37.1681 36.3943C37.335 36.3943 37.5018 36.3943 37.7059 36.3943ZM30.3687 43.0707C32.7427 41.1693 35.015 39.3489 37.2874 37.5295C36.9165 37.4307 36.607 37.4307 36.2976 37.4307C34.6385 37.4307 32.9785 37.4289 31.3194 37.4307C30.4898 37.4307 30.3696 37.55 30.3696 38.3591C30.3696 38.8093 30.3696 39.2585 30.3696 39.7087C30.3696 40.789 30.3696 41.8692 30.3696 43.0716L30.3687 43.0707Z" fill="white" stroke="white" stroke-width="1.49131" stroke-miterlimit="10"/>
<path d="M29.7378 17.6111H21.1509C20.9141 17.6111 20.7222 17.8225 20.7222 18.0833C20.7222 18.3441 20.9141 18.5555 21.1509 18.5555H29.7378C29.9746 18.5555 30.1666 18.3441 30.1666 18.0833C30.1666 17.8225 29.9746 17.6111 29.7378 17.6111Z" fill="white" stroke="white" stroke-width="0.944444" stroke-miterlimit="10"/>
<path d="M34.2457 22.3333H21.3653C21.0101 22.3333 20.7222 22.5447 20.7222 22.8055C20.7222 23.0663 21.0101 23.2777 21.3653 23.2777H34.2457C34.6009 23.2777 34.8888 23.0663 34.8888 22.8055C34.8888 22.5447 34.6009 22.3333 34.2457 22.3333Z" fill="white" stroke="white" stroke-width="0.944444" stroke-miterlimit="10"/>
<path d="M34.2457 27.0557H21.3653C21.0101 27.0557 20.7222 27.2671 20.7222 27.5279C20.7222 27.7887 21.0101 28.0001 21.3653 28.0001H34.2457C34.6009 28.0001 34.8888 27.7887 34.8888 27.5279C34.8888 27.2671 34.6009 27.0557 34.2457 27.0557Z" fill="white" stroke="white" stroke-width="0.944444" stroke-miterlimit="10"/>
</g>
<defs>
<clipPath id="clip0_114_702">
<rect width="23.5077" height="34" fill="white" transform="translate(16 11)"/>
</clipPath>
</defs>
</svg>
