<?xml version="1.0" encoding="utf-8"?>
<!-- Generator: Adobe Illustrator 16.0.0, SVG Export Plug-In . SVG Version: 6.00 Build 0)  -->
<!DOCTYPE svg PUBLIC "-//W3C//DTD SVG 1.1//EN" "http://www.w3.org/Graphics/SVG/1.1/DTD/svg11.dtd">
<svg version="1.1" id="Layer_1" xmlns="http://www.w3.org/2000/svg" xmlns:xlink="http://www.w3.org/1999/xlink" x="0px" y="0px"
	 width="1000px" height="138.129px" viewBox="-194.013 326.935 1000 138.129"
	 enable-background="new -194.013 326.935 1000 138.129" xml:space="preserve">
<path id="squarespace-logo-horizontal" fill="#222222" d="M281.285,357.147l-31.471,69.549h7.992l8.187-18.251h37.587l8.09,18.251
	h8.386l-31.471-69.549H281.285z M269.051,401.343l15.786-35.121l15.686,35.121H269.051z M54.692,388.419
	c-15.19-3.256-18.742-6.905-18.742-13.418v-0.198c0-6.213,5.721-11.148,14.699-11.148c7.101,0,13.516,2.271,19.927,7.499
	l4.538-6.018c-7.003-5.621-14.205-8.483-24.27-8.483c-13.118,0-22.688,7.992-22.688,18.843v0.195c0,11.347,7.3,16.476,23.183,19.931
	c14.501,3.058,17.956,6.706,17.956,13.119v0.196c0,6.811-6.119,11.74-15.393,11.74c-9.566,0-16.472-3.255-23.673-9.77l-4.833,5.728
	c8.284,7.396,17.262,11.044,28.211,11.044c13.714,0,23.58-7.691,23.58-19.531v-0.194C77.186,397.398,70.08,391.774,54.692,388.419z
	 M162.418,392.167v-0.195c0-19.042-14.108-35.518-35.121-35.518c-21.013,0-35.316,16.674-35.316,35.713v0.199
	c0,19.037,14.104,35.513,35.118,35.513c8.487,0,15.883-2.76,21.707-7.299l9.172,8.188l5.329-5.818l-9.075-7.696
	C159.361,408.938,162.418,400.751,162.418,392.167z M148.51,410.418l-12.923-11.738l-5.231,5.818l12.923,11.051
	c-4.339,3.255-9.865,5.129-15.98,5.129c-15.783,0-27.23-12.825-27.23-28.511v-0.195c0-15.689,11.249-28.316,27.031-28.316
	c15.786,0,27.23,12.826,27.23,28.511v0.198C154.329,399.272,152.256,405.483,148.51,410.418z M231.469,397.792
	c0,15.092-8.09,22.788-20.815,22.788c-13.122,0-21.11-8.386-21.11-23.283v-39.659h-7.794v40.154
	c0,19.533,11.638,29.989,28.706,29.989c17.266,0,28.808-10.456,28.808-30.582v-39.562h-7.794V397.792z M710.106,420.678
	c-15.196,0-26.734-12.529-26.734-28.511v-0.195c0-15.883,11.441-28.316,26.734-28.316c9.371,0,15.884,3.945,21.701,9.473l5.33-5.722
	c-6.907-6.512-14.405-10.953-26.934-10.953c-20.32,0-34.925,16.18-34.925,35.713v0.199c0,19.828,14.701,35.513,34.629,35.513
	c12.528,0,20.419-4.832,27.623-12.131l-5.131-5.034C725.791,417.029,719.575,420.678,710.106,420.678z M630.103,357.147
	l-31.47,69.549h7.992l8.187-18.251h37.587l8.09,18.251h8.386l-31.473-69.549H630.103z M617.87,401.343l15.786-35.121l15.684,35.121
	H617.87z M763.373,419.591v-24.167h37.685v-7.104h-37.685v-23.576h42.123v-7.105H755.58v69.059h50.407v-7.105H763.373
	L763.373,419.591z M417.715,395.423h37.684v-7.104h-37.684v-23.576h42.123v-7.105h-49.917v69.059h50.407v-7.105h-42.613V395.423z
	 M389.305,378.355v-0.194c0-5.426-1.976-10.264-5.328-13.617c-4.34-4.339-11.147-6.906-19.631-6.906H334.65v69.059h7.793v-26.834
	h19.732l20.024,26.834h9.57l-21.208-28.215C381.414,396.51,389.305,389.798,389.305,378.355z M342.443,392.856V364.84h21.311
	c11.148,0,17.66,5.13,17.66,13.617v0.195c0,8.88-7.4,14.205-17.758,14.205H342.443z M504.23,388.419
	c-15.196-3.256-18.747-6.905-18.747-13.418v-0.198c0-6.213,5.721-11.148,14.699-11.148c7.104,0,13.517,2.271,19.927,7.499
	l4.541-6.018c-7.007-5.621-14.209-8.483-24.27-8.483c-13.121,0-22.691,7.992-22.691,18.843v0.195
	c0,11.347,7.304,16.476,23.183,19.931c14.504,3.058,17.955,6.706,17.955,13.119v0.196c0,6.811-6.114,11.74-15.388,11.74
	c-9.57,0-16.476-3.255-23.679-9.77l-4.833,5.728c8.288,7.396,17.267,11.044,28.216,11.044c13.713,0,23.575-7.691,23.575-19.531
	v-0.194C526.719,397.398,519.618,391.774,504.23,388.419z M571.899,357.638h-25.847v69.059h7.794v-24.368h16.77
	c14.698,0,27.132-7.696,27.132-22.59v-0.198C597.748,365.926,587.489,357.638,571.899,357.638z M589.854,380.034
	c0,9.075-7.5,15.19-18.941,15.19h-17.065V364.84h17.461c11.147,0,18.546,5.13,18.546,14.996V380.034z M-83.763,363.219
	c2.322-2.324,2.322-6.083,0-8.406c-2.324-2.322-6.083-2.322-8.407,0l-55.473,55.473c-7.88,7.882-20.702,7.882-28.579,0.005
	c-7.88-7.881-7.88-20.702,0-28.582l44.626-44.626c2.323-2.324,2.323-6.083,0-8.405c-2.323-2.323-6.082-2.323-8.405,0l-44.626,44.626
	c-12.515,12.514-12.515,32.878,0,45.395c12.514,12.514,32.875,12.509,45.389-0.005L-83.763,363.219z M-166.133,400.204
	c2.322,2.321,6.082,2.321,8.405,0l55.473-55.475c7.881-7.88,20.703-7.88,28.579-0.004c2.323,2.323,6.083,2.323,8.405,0
	c2.323-2.323,2.323-6.083,0-8.405c-12.514-12.515-32.875-12.51-45.389,0.003l-55.474,55.475
	C-168.456,394.12-168.456,397.881-166.133,400.204z M-46.78,391.798c-2.323-2.324-6.083-2.324-8.406,0l-55.473,55.475
	c-7.88,7.88-20.702,7.88-28.579,0.002c-2.322-2.321-6.083-2.321-8.405,0c-2.323,2.323-2.323,6.084,0,8.407
	c12.514,12.514,32.875,12.51,45.389-0.004l55.475-55.474C-44.458,397.881-44.458,394.12-46.78,391.798z M-73.676,373.308
	l-55.473,55.472c-2.324,2.323-2.324,6.084,0,8.407c2.322,2.323,6.083,2.323,8.405,0l55.473-55.475
	c7.881-7.88,20.703-7.88,28.579-0.004c7.88,7.88,7.88,20.701,0,28.582l-44.626,44.625c-2.322,2.324-2.322,6.084,0,8.408
	c2.323,2.32,6.083,2.32,8.406,0l44.626-44.629c12.514-12.514,12.514-32.878,0-45.392C-40.801,360.79-61.162,360.793-73.676,373.308z
	"/>
</svg>
