<svg width="24" height="20" viewBox="0 0 24 20" fill="none" xmlns="http://www.w3.org/2000/svg">
<path d="M20.81 7.1L21.21 6.7C21.6 6.31 21.6 5.68 21.21 5.29C20.82 4.9 20.19 4.9 19.8 5.29L19.4 5.69C18.29 4.83 16.95 4.25 15.49 4.07C15.49 4.05 15.5 4.03 15.5 4V3H16.2C16.92 3 17.5 2.42 17.5 1.7V1.3C17.5 0.58 16.92 0 16.2 0H12.8C12.08 0 11.5 0.58 11.5 1.3V1.7C11.5 2.42 12.08 3 12.8 3H13.5V4C13.5 4 13.51 4.04 13.51 4.07C9.56 4.56 6.5 7.93 6.5 12C6.5 16.41 10.09 20 14.5 20C18.91 20 22.5 16.41 22.5 12C22.5 10.15 21.87 8.46 20.81 7.1ZM14.5 18C11.19 18 8.5 15.31 8.5 12C8.5 8.69 11.19 6 14.5 6C17.81 6 20.5 8.69 20.5 12C20.5 15.31 17.81 18 14.5 18ZM18.04 8.46C18.43 8.85 18.43 9.48 18.04 9.87L16.43 11.48C16.47 11.64 16.5 11.81 16.5 11.99C16.5 13.09 15.6 13.99 14.5 13.99C13.4 13.99 12.5 13.09 12.5 11.99C12.5 10.89 13.4 9.99 14.5 9.99C14.68 9.99 14.85 10.02 15.01 10.06L16.62 8.45C17.01 8.06 17.64 8.06 18.03 8.45L18.04 8.46ZM3.87 13H1C0.45 13 0 12.55 0 12C0 11.45 0.45 11 1 11H3.87C4.42 11 4.87 11.45 4.87 12C4.87 12.55 4.42 13 3.87 13ZM5.5 16C5.5 16.55 5.05 17 4.5 17H2.5C1.95 17 1.5 16.55 1.5 16C1.5 15.45 1.95 15 2.5 15H4.5C5.05 15 5.5 15.45 5.5 16ZM5.5 8C5.5 8.55 5.05 9 4.5 9H2.5C1.95 9 1.5 8.55 1.5 8C1.5 7.45 1.95 7 2.5 7H4.5C5.05 7 5.5 7.45 5.5 8Z" fill="#177A33"/>
</svg>
