<svg xmlns="http://www.w3.org/2000/svg" viewBox="0 0 798 204">
<defs><style>.cls-1{fill:#00bf86;}.cls-2{fill-rule:evenodd;}</style></defs>
<path class="cls-1" d="m136.6,23.82c24.2,17.4,38,45.9,38,79,0,15.7-2.6,28.6-7.9,37.9-5.8,10.2-14.8,16-25.4,16-6.7,0-12.5-2.4-16.7-6.3-4.9,4.3-10.9,6.5-17.2,6.5-10.4,0-18.3-5-22.1-13.9-2.9-6.9-3.1-15.6-1-25.5l.1-.5c1.4-6.6,1.3-11.9-.1-15.6-1-2.6-2.4-4-4.1-4.7-3.9-1.5-9.4,1-13.1,7.7-5.8,10.6-5.6,28.6,1.8,42.8,9.2,17.6,27.9,28.2,56.9,28.2s48-13.2,57.9-36.5,8.9-54.8-3.6-87l-.4-1,17.5-6.8c30.9,78.4.3,150-71.5,150-35.8,0-61-14.3-73.6-38.3-10.2-19.6-10.4-44.2-1.6-60.3,8-14.5,23.2-21.4,36.5-16.2,13.8,5.4,19.9,21.3,15.8,41l-.1.6c-1.4,6.6-1.4,11.8-.1,14.7.8,1.8,1.8,2.5,4.8,2.5,2.5,0,4.6-1.1,6.6-3.7,1.6-2,2.9-4.8,4-8.4.1-.4.2-.8.3-1.2l.2-.5c.8-3.2,1.4-7.1,1.7-11.5,1.7-24-8.4-41.4-25.7-49.2-16.4-7.4-36.3-4.5-50.7,8-13.6,11.9-21.1,31-20,51.8,1.2,22.4,12,44.3,31.9,61.5l.6.5-12.2,14.3C19.9,179.12,6.5,152.22,5,124.42c-1.4-26.3,8.3-51.1,26.4-66.8,19.9-17.4,47.8-21.4,70.8-11,24.5,11,38.9,35.9,36.6,67.5-.4,6.1-1.3,11.6-2.7,16.4-1.1,4.8,1.2,7.5,5.1,7.5,3.5,0,6.5-1.9,9.1-6.5,3.5-6.1,5.5-15.9,5.5-28.6-.1-56.2-45.9-89.8-105.6-74.3l-1.8.5-5-18c35.5-9.9,68.6-5,93.2,12.7Z"/><path class="cls-2" d="m247.5,74.52h19.5l11.3,39.7c1.5,5.2,2.4,11.8,2.4,11.8,0,0,.6-6.5,1.8-11.6l9.1-39.9h19.4l9.1,39.9c1.2,5.1,1.9,11.6,1.9,11.6,0,0,.7-6.5,2.2-11.8l11.4-39.7h19.4l-23.8,74.5h-18l-9.9-40.2c-1.2-5.1-1.9-11.3-1.9-11.3,0,0-.9,6.2-2.1,11.3l-10,40.2h-18.1l-23.7-74.5Z"/><path class="cls-2" d="m409.5,111.72c0-11.6-7.4-20.2-17.7-20.2s-18.4,8.6-18.4,20.2,7.7,20.2,18.4,20.2,17.7-8.3,17.7-20.2Zm-56.3,0c0-21.4,13.1-38.7,33.6-38.7,8.6,0,17.8,3.4,23.2,10.6v-9.1h19.5v74.4h-19.5v-8.9c-5.2,7.1-14.6,10.4-23.2,10.4-20.5,0-33.6-17.3-33.6-38.7Z"/><path class="cls-2" d="m446.2,152.62c9.2,0,12.6-3.1,15.3-8.9l1.6-3.3-31-65.9h20.2l15,34.8c2.2,5.2,4.9,12.6,4.9,12.6,0,0,3.1-8.8,4.8-13.1l13.5-34.4h19.9l-33,76.5c-8,18.3-22,19.8-31.2,19.8v-18.1Z"/><path class="cls-2" d="m571.8,148.92h19.9V51.02h-19.9v97.9Zm-46.8-58.2h-11.6v-16.1h11.6v-4.9c0-17.3,9.5-24.7,22.1-24.7,6.7,0,14.1,1.9,19.3,4.6l-5.6,14.7c-1.6-.7-4.9-2.2-8.3-2.2-4.2,0-7.6,2.1-7.6,9.8v2.7h18.6v16.1h-18.6v58.2h-19.9v-58.2Z"/><path class="cls-2" d="m611.3,152.62c9.2,0,12.6-3.1,15.3-8.9l1.6-3.3-31-65.9h20.2l15,34.8c2.2,5.2,4.9,12.6,4.9,12.6,0,0,3.1-8.8,4.8-13.1l13.5-34.4h19.9l-33,76.5c-8,18.3-22,19.8-31.2,19.8v-18.1Z"/><path class="cls-2" d="m726.5,105.32c-1.5-9.4-8.9-15.6-18-15.6-8.6,0-16,6.2-18,15.6h36Zm-55.8,6.4c0-21.4,16.6-38.7,38.5-38.7,20.2,0,36.1,17.3,36.1,38.4,0,3.6-.4,7.1-.4,7.1h-53.9c2.4,10.3,10.8,15.2,20.6,15.2,7.1,0,14.6-2.1,20-5.8l7.4,14.3c-8.3,5.5-18,8.2-27.6,8.2-21.7,0-40.7-14.2-40.7-38.7Z"/>
<path class="cls-2" d="m752.4,74.52h19.6v14.3c2.1-6.1,9.7-15.8,26-15.8v21.7c-17.2,0-25.7,7.9-25.7,25.6v28.6h-19.9v-74.4h0Z"/>
</svg>
